<?xml version="1.0" standalone="no"?>
<!DOCTYPE svg PUBLIC "-//W3C//DTD SVG 1.1//EN" "http://www.w3.org/Graphics/SVG/1.1/DTD/svg11.dtd">
<svg xmlns="http://www.w3.org/2000/svg">
<defs >
<font id="Merriweather" horiz-adv-x="1188" ><font-face
    font-family="Merriweather"
    units-per-em="2048"
    panose-1="2 0 8 3 6 0 0 9 0 4"
    ascent="2014"
    descent="-560"
    alphabetic="0" />
<glyph unicode=" " glyph-name="space" horiz-adv-x="485" />
<glyph unicode="!" glyph-name="exclam" horiz-adv-x="701" d="M379 1778H669L419 508H248L379 1778ZM123 122Q125 161 142 193T186 248T244 283T307 296Q343 296 369 284T411 253T435 207T441 153Q439 111 421 79T376 24T317 -9T251 -21Q224 -21 200 -11T158
18T131 63T123 122Z" />
<glyph unicode="&quot;" glyph-name="quotedbl" horiz-adv-x="1057" d="M303 1687H560L394 966H224L303 1687ZM802 1687H1059L893 966H723L802 1687Z" />
<glyph unicode="#" glyph-name="numbersign" horiz-adv-x="1405" d="M310 365H111L127 519H337L392 874H185L197 1025H414L467 1357H662L611 1025H892L948 1357H1143L1089 1025H1306L1294 874H1067L1011 519H1224L1208 365H984L927 0H737L788 365H506L444 0H252L310
365ZM815 519L870 874H589L533 519H815Z" />
<glyph unicode="$" glyph-name="dollar" horiz-adv-x="1205" d="M117 368H282L297 171Q340 139 398 117T526 94Q587 94 638 110T726 156T784 231T809 330Q811 384 793 427T741 509T656 583T545 658Q481 698 421 743T313 843T238 963T209 1110Q209 1206 244 1283T342
1416T490 1505T674 1547L703 1729H884L854 1545Q957 1535 1024 1514T1127 1470L1076 1197H923L892 1377Q854 1404 804 1418T697 1433Q650 1433 608 1420T533 1379T480 1312T458 1216Q456 1158 475 1111T532 1023T621 945T738 868Q800 830 859 788T964 694T1038
579T1066 437Q1066 345 1034 267T940 128T789 30T587 -19L553 -230H373L407 -19Q345 -14 289 -4T188 19T110 45T63 70L117 368Z" />
<glyph unicode="%" glyph-name="percent" horiz-adv-x="1911" d="M1328 1530H1517L570 0H381L1328 1530ZM473 740Q402 740 347 764T255 831T199 931T180 1055Q180 1134 211 1211T299 1349T433 1447T603 1485Q680 1485 736 1463T828 1400T882 1304T900 1185Q900
1103 870 1023T783 880T649 779T473 740ZM502 848Q551 848 587 882T645 966T679 1074T690 1177Q690 1270 663 1324T575 1378Q525 1378 489 1346T428 1265T393 1160T381 1057Q381 1010 388 972T409 906T447 863T502 848ZM1027 376Q1027 455 1058 532T1146 670T1280
768T1450 806Q1527 806 1583 784T1675 721T1729 625T1747 506Q1747 424 1717 344T1630 201T1496 100T1320 61Q1249 61 1194 85T1102 152T1046 252T1027 376ZM1228 378Q1228 331 1235 293T1256 227T1294 184T1349 169Q1398 169 1434 203T1492 287T1526 395T1537
498Q1537 591 1510 645T1422 699Q1372 699 1336 667T1275 586T1240 481T1228 378Z" />
<glyph unicode="&amp;" glyph-name="ampersand" horiz-adv-x="1673" d="M60 354Q60 438 90 502T171 617T289 707T430 781Q413 822 398 867T371 958T353 1048T346 1131Q346 1231 384 1310T489 1444T647 1529T844 1559Q947 1559 1019 1535T1136 1471T1203 1378T1224
1268Q1224 1174 1180 1104T1064 977T903 875T724 783Q772 698 817 628T908 497T1004 383T1109 278L1112 274Q1180 373 1180 527Q1180 559 1178 587T1171 639Q1162 640 1153 640T1135 640Q1087 640 1046 628T983 602V782Q990 789 1002 797T1034 813T1079 826T1138
831Q1166 831 1192 828T1246 821T1302 814T1367 811Q1407 811 1436 818T1487 843T1521 891T1542 968H1637Q1647 899 1641 835T1612 723T1548 645T1447 616Q1436 616 1426 616T1404 618Q1405 607 1405 596T1406 571Q1406 450 1358 352T1226 180Q1253 160 1276 149Q1297
140 1322 133T1373 122T1425 115T1472 114L1466 9Q1410 -9 1358 -14T1234 -20Q1095 -20 993 41Q906 7 812 -10T620 -27Q506 -27 404 -3T226 68T105 187T60 354ZM669 891Q730 922 784 956T878 1033T941 1129T965 1249Q965 1283 959 1318T938 1381T897 1428T828 1446Q770
1446 728 1425T659 1368T619 1283T606 1177Q606 1093 626 1020T669 891ZM335 377Q335 308 360 256T428 169T529 117T653 99Q788 99 887 126Q817 191 763 254T664 382T579 513T497 651Q425 598 380 532T335 377Z" />
<glyph unicode="&apos;" glyph-name="quotesingle" horiz-adv-x="558" d="M298 1687H555L389 966H219L298 1687Z" />
<glyph unicode="(" glyph-name="parenleft" horiz-adv-x="869" d="M190 505Q190 608 205 724Q224 871 271 1000T380 1240T510 1440T642 1595T755 1702T830 1756L937 1682Q916 1668 878 1633T794 1540T696 1405T599 1231T514 1020T454 773Q445 710 440 639T434
512Q434 402 448 306T484 129T535 -17T592 -131T647 -212T691 -260L568 -334H551Q533 -322 499 -291T425 -209T343 -88T267 71T212 268T190 505Z" />
<glyph unicode=")" glyph-name="parenright" horiz-adv-x="874" d="M687 923Q687 820 672 704Q653 557 606 428T497 188T367 -12T235 -167T122 -274T47 -328L-60 -254Q-39 -240 -1 -205T83 -112T181 23T278 197T363 408T423 655Q432 718 437 789T443 916Q443 1026
429 1122T393 1299T342 1445T285 1559T230 1640T186 1688L309 1762H326Q344 1750 378 1719T452 1637T534 1516T610 1357T665 1160T687 923Z" />
<glyph unicode="*" glyph-name="asterisk" horiz-adv-x="1366" d="M250 988L583 1122L670 1151L591 1179L282 1314L410 1499L664 1288L725 1231L716 1319L709 1663L931 1662L851 1317L827 1233L898 1289L1198 1500L1284 1313L951 1179L864 1149L943 1121L1252
987L1124 802L870 1012L808 1072L817 982L824 637L602 638L681 984L706 1069L636 1011L336 800L250 988Z" />
<glyph unicode="+" glyph-name="plus" horiz-adv-x="1346" d="M575 526L601 690L460 683H250L268 861H489L627 850L640 1015L667 1245H865L839 1015L810 851L925 861H1165L1147 683H897L785 690Q783 648 780 608T775 526L747 285H548L575 526Z" />
<glyph unicode="," glyph-name="comma" horiz-adv-x="541" d="M84 137L208 280Q267 266 306 236T368 166T400 83T410 -4Q410 -88 382 -164T304 -306T183 -424T27 -511L-27 -432L-24 -411Q18 -393 55 -358T121 -278T166 -185T183 -88Q183 -55 175 -25T152 29T118
65T77 78L84 137Z" />
<glyph unicode="-" glyph-name="hyphen" horiz-adv-x="1276" d="M258 861H1105L1087 683H240L258 861Z" />
<glyph unicode="." glyph-name="period" horiz-adv-x="541" d="M74 122Q76 161 92 193T132 248T187 283T249 296Q285 296 311 284T353 253T377 207T383 153Q381 111 364 79T321 24T263 -9T198 -21Q171 -21 148 -11T107 18T81 63T74 122Z" />
<glyph unicode="/" glyph-name="slash" horiz-adv-x="854" d="M-127 -362L734 1597H938L75 -362H-127Z" />
<glyph unicode="0" glyph-name="zero" horiz-adv-x="1278" d="M97 450Q97 601 146 731T281 957T483 1107T734 1162Q860 1162 947 1128T1088 1033T1166 886T1191 697Q1191 556 1146 427T1017 200T818 43T559 -16Q434 -16 347 21T204 122T123 270T97 450ZM581 94Q640
90 687 112T772 177T835 277T878 401T903 538T911 677Q911 761 900 830T864 948T801 1025T707 1053Q641 1054 591 1027T505 953T444 847T405 721T384 589T378 466Q378 391 389 324T425 206T488 125T581 94Z" />
<glyph unicode="1" glyph-name="one" horiz-adv-x="930" d="M96 97L296 124L403 902Q345 888 284 875T157 850L140 960Q192 972 253 994T373 1045T487 1104T581 1162L705 1134L563 125L774 97L764 0H86L96 97Z" />
<glyph unicode="2" glyph-name="two" horiz-adv-x="1249" d="M60 108Q151 157 238 211T405 322T550 437T665 554T741 670T768 781Q768 826 757 864T723 930T665 975T579 991Q527 991 477 977T381 939T295 885T223 823L159 932Q191 970 239 1010T349 1085T487 1140T651
1162Q762 1162 839 1132T964 1054T1033 946T1054 826Q1054 757 1027 691T951 563T836 441T694 329T534 227T367 138L905 179L1029 353L1153 312L1053 0H85L60 108Z" />
<glyph unicode="3" glyph-name="three" horiz-adv-x="1104" d="M40 -185Q56 -188 75 -190T112 -194T148 -197T178 -198Q286 -198 374 -173T525 -101T622 10T656 152Q656 201 641 242T593 313T508 358T380 369L254 337L272 482Q339 495 410 526T541 601T638 703T676
829Q676 865 664 894T631 945T578 979T507 991Q457 991 413 982T329 955T253 915T183 865L131 978Q156 1005 202 1037T309 1096T444 1143T600 1162Q669 1162 733 1144T845 1091T923 1002T952 876Q952 808 923 747T845 635T731 545T594 482Q685 480 750 455T857
388T918 291T938 173Q938 51 879 -44T720 -204T486 -304T204 -339Q160 -339 111 -334T22 -321L40 -185V-185Z" />
<glyph unicode="4" glyph-name="four" horiz-adv-x="1264" d="M1 89Q92 226 175 361T342 639T511 933T693 1256H895L977 1167L340 219L279 137L695 165L746 541L994 599L942 172L1159 187L1135 0H915L868 -375H624L673 0H52L1 89Z" />
<glyph unicode="5" glyph-name="five" horiz-adv-x="1116" d="M60 -212Q80 -217 105 -220T154 -223Q274 -223 371 -190T537 -100T643 29T681 182Q681 309 614 375T412 442Q346 442 290 427T178 389L123 431L299 1146H836L858 1162H1051L995 956H495L385 560Q420
571 477 579T602 588Q684 588 752 564T870 492T946 375T973 218Q973 131 944 55T862 -84T737 -196T577 -280T393 -332T193 -350Q177 -350 156 -349T114 -344T73 -337T41 -329L60 -212V-212Z" />
<glyph unicode="6" glyph-name="six" horiz-adv-x="1238" d="M115 499Q115 620 145 737T230 961T363 1165T539 1340T749 1478T987 1571L1028 1462Q923 1426 831 1365T663 1224T531 1052T441 860Q463 883 495 905T569 945T659 974T766 985Q857 985 923 955T1031
873T1094 752T1115 606Q1115 527 1096 451T1042 305T957 176T842 73T703 5T543 -20Q442 -20 363 14T228 115T144 278T115 499ZM377 450Q377 376 387 313T421 202T486 129T589 102Q637 102 675 122T743 176T792 255T826 350T845 451T851 551Q851 626 838 679T803
766T750 816T683 832Q626 832 581 816T502 777T443 729T404 683Q390 619 384 562T377 450Z" />
<glyph unicode="7" glyph-name="seven" horiz-adv-x="1096" d="M845 994L354 977L255 771L72 775L150 1146H1057L1089 1103L484 -330L211 -249L845 994Z" />
<glyph unicode="8" glyph-name="eight" horiz-adv-x="1255" d="M112 354Q112 429 141 496T218 622T329 730T461 818Q421 851 386 889T324 972T283 1068T267 1176Q267 1267 302 1339T401 1463T554 1541T750 1569Q835 1569 910 1547T1040 1482T1127 1377T1159 1235Q1159
1164 1132 1103T1060 990T957 893T837 813Q892 775 940 730T1026 633T1084 524T1106 403Q1106 303 1060 225T939 92T767 9T568 -20Q488 -20 407 0T261 65T154 181T112 354ZM720 900Q764 923 802 956T870 1031T915 1124T932 1235Q932 1296 915 1338T871 1408T807
1447T734 1460Q687 1460 647 1444T578 1396T531 1318T514 1212Q514 1166 529 1124T571 1043T636 969T720 900ZM356 373Q356 320 371 271T415 182T488 120T588 96Q641 96 688 113T771 164T828 246T849 355Q849 410 829 460T771 558T683 649T572 736Q526 710 487
673T419 590T374 489T356 373Z" />
<glyph unicode="9" glyph-name="nine" horiz-adv-x="1247" d="M199 -320Q313 -281 407 -219T575 -80T704 87T795 273Q772 250 744 229T678 190T594 163T484 152Q382 152 311 185T196 274T133 399T113 542Q113 619 131 695T183 840T268 967T381 1069T521 1137T685
1162Q785 1162 864 1130T999 1034T1084 877T1113 660Q1113 533 1082 411T995 177T860 -33T684 -210T476 -346T243 -431L199 -320ZM545 305Q603 305 648 321T727 361T785 411T825 459Q839 516 845 579T851 699Q851 765 842 827T808 936T743 1012T638 1041Q590 1041
552 1021T485 967T436 888T402 794T383 694T377 599Q377 521 390 466T426 375T479 322T545 305Z" />
<glyph unicode=":" glyph-name="colon" horiz-adv-x="541" d="M163 931Q165 970 181 1002T221 1057T276 1092T338 1105Q374 1105 400 1093T442 1062T466 1016T472 962Q470 920 453 888T410 833T352 800T287 788Q260 788 237 798T196 827T170 872T163 931ZM321
122Q323 161 339 193T379 248T434 283T496 296Q532 296 558 284T600 253T624 207T630 153Q628 111 611 79T568 24T510 -9T445 -21Q418 -21 395 -11T354 18T328 63T321 122Z" />
<glyph unicode=";" glyph-name="semicolon" horiz-adv-x="541" d="M84 137L208 280Q267 266 306 236T368 166T400 83T410 -4Q410 -88 382 -164T304 -306T183 -424T27 -511L-27 -432L-24 -411Q18 -393 55 -358T121 -278T166 -185T183 -88Q183 -55 175 -25T152 29T118
65T77 78L84 137ZM164 931Q166 970 182 1002T222 1057T277 1092T339 1105Q375 1105 401 1093T443 1062T467 1016T473 962Q471 920 454 888T411 833T353 800T288 788Q261 788 238 798T197 827T171 872T164 931Z" />
<glyph unicode="&lt;" glyph-name="less" horiz-adv-x="1368" d="M211 814L1220 1324L1192 1097L453 749L1110 395L1085 176L195 686L211 814Z" />
<glyph unicode="=" glyph-name="equal" horiz-adv-x="1063" d="M170 1020H985L965 843H150L170 1020ZM99 501H914L893 324H78L99 501Z" />
<glyph unicode="&gt;" glyph-name="greater" horiz-adv-x="1368" d="M1259 689L250 179L278 406L1017 754L360 1108L385 1327L1275 817L1259 689Z" />
<glyph unicode="?" glyph-name="question" horiz-adv-x="986" d="M329 473Q312 490 298 516T274 574T259 642T253 715Q253 765 275 807T336 886T426 956T537 1024Q622 1070 683 1115T770 1202Q778 1223 783 1251T790 1303Q791 1373 765 1432T691 1534T577 1601T431
1626Q386 1626 332 1614T235 1580L279 1760Q290 1771 318 1782T381 1803T454 1817T524 1823Q666 1823 759 1786T908 1688T986 1551T1009 1397Q1009 1305 986 1237T926 1117T840 1027T742 958T642 900T554 842T491 775T463 688Q462 662 465 638T474 592T485 552T494
521L344 472L329 473ZM292 113Q292 153 309 186T354 244T414 282T478 296Q512 296 537 286T578 257T603 216T611 167Q611 122 593 87T547 28T485 -8T417 -21Q391 -21 369 -11T329 17T302 59T292 113Z" />
<glyph unicode="@" glyph-name="at" horiz-adv-x="1969" d="M88 336Q88 519 131 681T250 979T431 1223T659 1405T919 1520T1198 1560Q1351 1560 1478 1516T1696 1387T1839 1183T1890 911Q1890 770 1865 648T1795 426T1692 247T1564 116T1421 34T1275 6Q1241 6
1220 21T1188 63T1172 127T1168 210Q1168 228 1170 253T1176 309T1187 374T1201 442Q1167 362 1123 284T1029 145T923 45T812 7Q756 7 701 32T603 111T534 245T509 438Q510 514 526 593T574 746T653 886T764 1000T907 1077T1081 1105Q1102 1105 1130 1102T1187
1091T1245 1072T1294 1046L1479 1086Q1464 1029 1448 945T1417 769T1390 583T1370 415Q1366 376 1366 346T1365 292T1367 250T1368 216Q1368 189 1374 179T1388 169Q1430 169 1470 196T1547 271T1614 383T1667 520T1702 673T1715 831Q1715 938 1691 1022T1624 1171T1524
1280T1399 1355T1258 1397T1110 1410Q979 1410 866 1370T660 1260T496 1093T375 886T301 652T275 408Q275 223 329 92T474 -122T687 -243T941 -282Q984 -282 1034 -277T1133 -263T1222 -243T1289 -219L1326 -316Q1291 -342 1246 -363T1146 -400T1031 -424T906 -433Q736
-433 587 -387T327 -247T152 -7T88 336ZM724 447Q724 401 731 357T753 277T792 220T850 198Q881 198 920 233T999 327T1080 458T1152 607T1207 755T1237 881Q1226 900 1206 915T1160 942T1110 959T1063 966Q1000 966 951 944T864 884T800 796T756 688T732 568T724
447Z" />
<glyph unicode="A" glyph-name="A" horiz-adv-x="1359" d="M687 1530H960L1210 128L1368 96L1362 0H773L779 96L925 125L880 426H349L213 126L381 96L374 0H-141L-132 96L7 125L687 1530ZM860 562L768 1177L758 1330L410 562H860Z" />
<glyph unicode="B" glyph-name="B" horiz-adv-x="1343" d="M13 96L157 126L321 1400L182 1425L195 1530H483Q562 1531 640 1538T806 1546Q938 1546 1025 1518T1166 1444T1242 1339T1267 1218Q1271 1054 1183 954T930 807Q1004 803 1064 778T1168 710T1234 613T1259
495Q1260 357 1210 260T1067 101T845 11T558 -17Q525 -17 488 -15T412 -9T337 -3T270 0H4L13 96ZM517 855Q554 853 591 853T667 854Q737 854 799 873T907 934T980 1039T1004 1192Q1000 1307 939 1365T744 1424Q733 1424 714 1424T673 1422T629 1418T589 1412L517
855ZM424 127Q441 122 465 118T514 112T562 108T601 106Q689 106 758 126T876 190T948 302T970 467Q968 531 951 579T898 659T807 706T676 722Q607 722 567 720T499 716L424 127Z" />
<glyph unicode="C" glyph-name="C" horiz-adv-x="1281" d="M635 -16Q534 -16 454 9T312 78T206 184T133 317T91 469T77 632Q75 842 136 1011T306 1300T564 1483T889 1548Q964 1548 1020 1543T1117 1531T1189 1516T1246 1501L1282 1491L1217 1107H1032L1001 1392Q972
1406 935 1415T849 1424Q761 1424 692 1389T569 1295T479 1157T418 994T385 820T377 653Q380 540 398 444T453 276T547 164T686 123Q712 123 745 126T811 139T875 166T928 212Q935 220 945 246T967 305T988 367T1002 411H1163L1122 103Q1095 87 1052 67T949 28T811
-3T635 -16Z" />
<glyph unicode="D" glyph-name="D" horiz-adv-x="1472" d="M3 96L156 126L321 1400L183 1425L194 1530H501Q576 1531 654 1538T812 1546Q979 1546 1095 1500T1285 1370T1392 1172T1427 922Q1429 719 1376 547T1217 248T954 52T589 -16Q571 -16 543 -14T495 -9Q477
-8 451 -6T395 -3T338 -1T287 0H-8L3 96ZM432 134Q450 128 475 123T527 114T579 108T625 106Q719 109 794 144T926 238T1023 372T1089 536T1126 715T1137 896Q1136 1039 1114 1139T1047 1303T933 1396T766 1425Q741 1425 715 1423T666 1418T624 1410T594 1402L432
134Z" />
<glyph unicode="E" glyph-name="E" horiz-adv-x="1279" d="M3 96L158 126L320 1400L181 1425L192 1530H1215L1193 1190H1029L988 1396L598 1416L526 868L967 883L949 696L510 717L430 126L940 156L1058 408L1216 385L1137 0H-9L3 96Z" />
<glyph unicode="F" glyph-name="F" horiz-adv-x="1189" d="M14 97L158 126L320 1400L181 1425L194 1530H1247L1213 1184H1042L1018 1396L597 1415L526 857L1002 880L983 683L510 711L433 127L731 97L723 0H5L14 97Z" />
<glyph unicode="G" glyph-name="G" horiz-adv-x="1396" d="M619 -16Q524 -16 448 9T312 78T210 183T139 315T97 466T81 627Q77 832 132 1002T291 1293T542 1481T869 1548Q954 1548 1018 1542T1132 1527T1219 1508T1286 1490L1336 1479L1274 1153H1087L1072 1373Q1036
1396 985 1410T859 1424Q765 1424 692 1392T565 1303T473 1171T413 1010T381 833T372 653Q373 549 390 453T445 282T541 163T682 118Q757 118 822 128T941 170L994 590L776 607L792 738H1288L1203 89Q1172 86 1130 77T1044 56Q1003 45 956 32T856 9T743 -9T619
-16Z" />
<glyph unicode="H" glyph-name="H" horiz-adv-x="1593" d="M15 96L158 126L321 1400L182 1425L195 1530H774L763 1425L596 1400L525 849H1128L1199 1400L1036 1425L1047 1530H1632L1620 1425L1474 1400L1311 127L1465 96L1455 0H848L859 97L1036 127L1110 709H507L433
126L598 97L590 0H5L15 96Z" />
<glyph unicode="I" glyph-name="I" horiz-adv-x="745" d="M17 96L166 126L329 1400L189 1425L201 1530H778L767 1425L604 1400L441 126L607 97L600 0H6L17 96Z" />
<glyph unicode="J" glyph-name="J" horiz-adv-x="740" d="M161 86Q191 232 214 394T258 726T296 1066T333 1400L186 1425L200 1530H775L764 1425L603 1401Q585 1247 568 1096T535 805T503 543T475 324T451 164T432 75Q400 -20 342 -92T208 -216T44 -300T-134 -345L-178
-247Q-103 -225 -45 -189T56 -108T124 -13T161 86Z" />
<glyph unicode="K" glyph-name="K" horiz-adv-x="1419" d="M11 96L158 126L321 1400L182 1425L195 1530H774L762 1425L596 1400L507 705L1124 1400L993 1425L1004 1530H1471L1460 1425L1340 1401L835 870Q859 832 891 776T957 661T1021 546T1071 453Q1110 379
1140 325T1194 232T1236 171T1272 139L1401 100L1388 0H1035Q1014 3 996 21T957 75T914 161T859 281Q840 323 816 376T766 484T714 593T665 691L480 497L433 126L598 97L590 0H-1L11 96Z" />
<glyph unicode="L" glyph-name="L" horiz-adv-x="1225" d="M15 97L158 126L321 1400L181 1425L194 1530H792L781 1425L596 1400L432 123L841 138L1004 527L1153 504L1063 0H5L15 97Z" />
<glyph unicode="M" glyph-name="M" horiz-adv-x="1970" d="M-58 97L113 126L429 1400L252 1425L266 1530H828L968 575L986 406L1039 575Q1053 608 1074 659T1122 773T1179 908T1241 1053T1302 1197T1359 1332T1407 1446T1443 1530H1961L1949 1425L1774 1400L1742
127L1920 97L1912 0H1281L1290 98L1462 126L1517 1011L1535 1381L1407 1059L948 -3L809 -18L640 1035L591 1382L517 1025L319 126L517 97L507 0H-69L-58 97Z" />
<glyph unicode="N" glyph-name="N" horiz-adv-x="1531" d="M9 96L151 125L329 1400L171 1425L187 1530H635L1059 477L1128 265L1264 1401L1108 1425L1120 1530H1596L1586 1425L1451 1400L1244 0H971L536 1062L469 1280L346 126L518 97L509 0H1L9 96Z" />
<glyph unicode="O" glyph-name="O" horiz-adv-x="1443" d="M81 629Q80 753 102 870T169 1089T279 1276T429 1422T615 1516T836 1550Q977 1550 1080 1497T1250 1355T1351 1147T1386 898Q1387 776 1366 661T1303 444T1198 257T1051 110T865 14T639 -20Q503 -20 400
27T226 159T119 364T81 629ZM668 101Q768 101 848 160T983 323T1067 569T1095 873Q1094 1005 1076 1107T1022 1281T932 1389T805 1426Q740 1426 683 1398T577 1320T490 1201T426 1048T387 872T374 680Q375 561 389 456T436 272T525 147T668 101Z" />
<glyph unicode="P" glyph-name="P" horiz-adv-x="1274" d="M14 96L157 126L322 1400L181 1425L194 1530H479Q519 1530 555 1532T626 1538T696 1544T770 1547Q904 1547 1000 1522T1160 1447T1254 1322T1287 1148Q1291 1001 1243 886T1108 691T898 571T629 529Q572
529 540 530T484 533L436 126L673 97L665 0H4L14 96ZM500 666Q538 658 572 657T638 655Q732 656 802 690T917 786T986 937T1010 1136Q1011 1283 946 1355T736 1424Q707 1424 670 1421T598 1409L500 666Z" />
<glyph unicode="Q" glyph-name="Q" horiz-adv-x="1444" d="M594 -18Q469 -11 374 38T213 173T114 373T79 629Q78 753 100 870T167 1089T277 1276T427 1422T613 1516T834 1550Q975 1550 1078 1497T1248 1355T1349 1147T1384 898Q1385 731 1346 578T1227 303T1031
98T760 -10Q761 -69 786 -103T852 -154T944 -176T1048 -181Q1067 -181 1097 -179T1161 -171T1228 -158T1289 -140L1291 -301Q1272 -316 1240 -333T1165 -364T1070 -387T958 -397Q870 -397 796 -373T672 -302T599 -183T594 -18ZM666 101Q766 101 846 160T981 323T1065
569T1093 873Q1092 1005 1074 1107T1020 1281T930 1389T803 1426Q738 1426 681 1398T575 1320T488 1201T424 1048T385 872T372 680Q373 561 387 456T434 272T523 147T666 101Z" />
<glyph unicode="R" glyph-name="R" horiz-adv-x="1399" d="M23 96L158 126L321 1400L182 1425L194 1530H443Q486 1530 523 1532T598 1538T678 1543T772 1546Q905 1546 1001 1523T1161 1453T1254 1338T1285 1181Q1286 1096 1264 1021T1198 883T1090 775T941 700Q966
679 989 643T1031 566T1066 483T1094 409Q1128 323 1155 264T1210 169T1272 118T1355 102L1348 -1L1027 1Q1000 0 966 61T887 247Q864 314 839 386T787 518T733 619T677 667Q641 666 607 666H491L427 126L611 97L604 0H14L23 96ZM508 795Q523 794 549 793T603 792T655
791T692 792Q773 795 833 823T934 901T993 1024T1009 1186Q1007 1245 991 1289T940 1364T853 1409T723 1424Q713 1424 697 1423T662 1420T624 1415T590 1409L508 795Z" />
<glyph unicode="S" glyph-name="S" horiz-adv-x="1126" d="M85 368H246L264 167Q304 138 359 119T481 99Q542 99 593 113T682 156T742 225T766 322Q767 377 751 421T702 506T621 582T513 658Q450 698 390 744T284 846T209 966T180 1112Q179 1216 219 1297T328
1435T493 1520T699 1550Q775 1550 837 1543T946 1524T1028 1498T1085 1470L1035 1188H887L858 1375Q823 1401 777 1414T673 1428Q623 1428 581 1416T507 1379T457 1315T437 1221Q436 1163 454 1116T508 1027T593 947T707 869Q768 830 826 787T929 691T1001 576T1029
436Q1030 337 993 253T884 108T709 12T475 -23Q398 -23 327 -14T196 10T95 40T35 70L85 368Z" />
<glyph unicode="T" glyph-name="T" horiz-adv-x="1343" d="M225 100L472 126L644 1409L363 1382L243 1049L92 1048L170 1530H1425L1365 1049L1220 1041L1197 1383L920 1409L747 126L1013 100L1005 0H214L225 100Z" />
<glyph unicode="U" glyph-name="U" horiz-adv-x="1413" d="M137 428Q136 467 137 507T144 593L248 1401L109 1425L122 1530H715L705 1426L531 1400L430 617Q424 559 420 509T416 420Q417 344 434 284T484 183T566 119T680 97Q768 97 835 133T949 237T1027 403T1073
626L1177 1400L1026 1425L1037 1530H1495L1482 1425L1356 1401L1255 627Q1232 450 1182 327T1055 127T872 15T634 -20Q501 -20 407 13T253 105T166 247T137 428Z" />
<glyph unicode="V" glyph-name="V" horiz-adv-x="1235" d="M152 1400L26 1425L38 1530H605L595 1425L438 1400L568 480L592 236L677 480L1088 1400L926 1425L936 1530H1428L1414 1425L1277 1401L634 -10L387 -16L152 1400Z" />
<glyph unicode="W" glyph-name="W" horiz-adv-x="1887" d="M137 1400L5 1425L18 1530H569L559 1425L418 1400L535 473L564 236L629 439L956 1268L943 1402L804 1425L814 1530H1374L1359 1425L1215 1401L1314 473L1323 236L1400 454L1793 1399L1615 1425L1625 1530H2133L2120
1425L1981 1400L1361 -10H1100L998 967L614 -10H352L137 1400Z" />
<glyph unicode="X" glyph-name="X" horiz-adv-x="1342" d="M-58 97L60 126L549 759L246 1399L117 1425L127 1530H716L706 1425L562 1401L747 925L1064 1400L927 1425L936 1530H1432L1422 1425L1285 1401L815 793L1144 126L1284 97L1275 0H661L669 97L823 126L620
618L287 126L437 96L428 0H-69L-58 97Z" />
<glyph unicode="Y" glyph-name="Y" horiz-adv-x="1227" d="M212 97L425 126L485 598L137 1400L30 1425L41 1530H627L613 1425L442 1400L642 873L687 749L749 860L1066 1400L920 1425L930 1530H1403L1390 1425L1277 1401L756 598L695 126L924 97L915 0H202L212 97Z" />
<glyph unicode="Z" glyph-name="Z" horiz-adv-x="1220" d="M-33 89L811 1261L957 1409L457 1397L335 1138L189 1161L242 1530H1231L1259 1444L421 269L288 122L850 146L1005 438L1149 407L1058 0H-2L-33 89Z" />
<glyph unicode="[" glyph-name="bracketleft" horiz-adv-x="864" d="M149 42Q151 76 159 148T181 315T210 524T243 755T277 988T309 1203T335 1380T352 1501Q361 1573 382 1621T437 1699T517 1740T622 1753Q655 1753 699 1746T785 1729Q833 1718 882 1706L866
1601H591L368 -55Q379 -55 400 -55T449 -55T505 -56T562 -56T610 -57T643 -57L630 -164Q596 -174 565 -182T501 -197T433 -207T357 -211Q310 -211 271 -204T204 -181T161 -137T145 -68Q145 -42 145 -15T149 42Z" />
<glyph unicode="\" glyph-name="backslash" horiz-adv-x="854" d="M76 1597H277L854 -362H652L76 1597Z" />
<glyph unicode="]" glyph-name="bracketright" horiz-adv-x="864" d="M751 1514Q749 1480 741 1408T719 1241T690 1032T657 801T623 568T591 353T565 176T548 55Q539 -17 518 -65T463 -143T383 -184T278 -197Q245 -197 201 -190T115 -173Q67 -162 18 -150L34 -45H309L532
1611Q521 1611 500 1611T451 1611T395 1612T338 1612T290 1613T257 1613L270 1720Q304 1730 335 1738T399 1753T467 1763T543 1767Q590 1767 629 1760T696 1737T739 1693T755 1624Q755 1598 755 1571T751 1514Z" />
<glyph unicode="^" glyph-name="asciicircum" horiz-adv-x="1364" d="M673 1531H900L1167 510H957L760 1252L372 510H157L673 1531Z" />
<glyph unicode="_" glyph-name="underscore" horiz-adv-x="1335" d="M1287 -187L1267 -338H-111L-91 -187H1287Z" />
<glyph unicode="`" glyph-name="grave" horiz-adv-x="541" d="M411 1246Q390 1255 358 1274T289 1321T211 1380T135 1445T70 1510T25 1571L203 1743L491 1311L411 1246V1246Z" />
<glyph unicode="a" glyph-name="a" horiz-adv-x="1194" d="M72 407Q72 494 91 584T149 758T243 915T374 1044T539 1131T739 1163Q766 1163 795 1160T852 1151T908 1139T957 1124L1092 1163L962 207Q957 166 968 149T997 131Q1011 131 1031 140T1087 177L1117 114Q1110
103 1089 81T1035 36T959 -3T865 -20Q796 -20 755 13T717 115L715 118Q691 91 660 67T590 23T508 -8T413 -20Q324 -20 260 13T154 103T92 239T72 407ZM502 138Q533 138 562 147T617 172T667 208T710 251L812 1016Q768 1032 711 1032Q645 1032 593 1005T500 931T430
824T383 696T356 559T347 425Q347 289 388 214T502 138Z" />
<glyph unicode="b" glyph-name="b" horiz-adv-x="1190" d="M285 1484L186 1527L207 1611L508 1650L560 1623L482 1033Q506 1058 537 1081T604 1123T683 1152T774 1163Q861 1163 925 1133T1031 1046T1095 909T1116 730Q1116 639 1096 549T1037 375T941 219T811
94T648 11T456 -20Q425 -20 393 -16T328 -6T267 8T215 24L93 -20L285 1484ZM362 132Q388 120 418 115T484 110Q548 110 599 136T690 208T759 313T806 442T834 582T843 723Q843 785 833 837T803 926T754 983T687 1004Q652 1004 619 992T557 960T503 915T459 864L362
132Z" />
<glyph unicode="c" glyph-name="c" horiz-adv-x="923" d="M73 440Q72 521 89 606T140 771T225 922T345 1047T500 1132T690 1163Q719 1163 751 1160T814 1152T875 1139T928 1120L856 867Q835 880 807 904T749 952T689 993T631 1011Q579 1011 528 972T436 860T371
686T348 460Q349 376 362 316T399 218T458 162T538 144Q580 144 615 152T681 176T742 214T802 265L853 173Q833 146 797 113T710 50T592 0T446 -20Q359 -20 291 10T174 98T100 243T73 440Z" />
<glyph unicode="d" glyph-name="d" horiz-adv-x="1217" d="M409 -20Q320 -20 257 13T152 103T92 239T72 407Q72 494 90 584T146 758T239 915T368 1044T533 1131T734 1163Q763 1163 793 1159T854 1149L904 1482L764 1525L784 1608L1132 1650L1187 1623L982 208Q977
172 983 152T1010 131Q1024 131 1043 140T1099 177L1129 115Q1121 105 1101 83T1048 38T973 -2T878 -20Q800 -20 765 20T730 144Q707 114 675 85T603 32T514 -5T409 -20ZM496 138Q531 138 564 150T626 183T680 229T724 281L833 1006Q806 1020 774 1026T707 1032Q641
1032 589 1005T496 930T427 822T380 692T354 554T345 420Q345 284 385 211T496 138Z" />
<glyph unicode="e" glyph-name="e" horiz-adv-x="1050" d="M74 430Q75 530 97 623T158 798T254 947T378 1062T526 1136T693 1163Q772 1163 829 1144T924 1091T980 1012T1000 913Q1001 833 970 769T885 654T764 568T624 508T483 472T358 458Q355 395 365 338T400
236T463 165T559 139Q656 139 735 181T878 290L933 197Q912 166 873 128T777 57T649 2T493 -20Q380 -20 300 18T170 119T96 263T74 430ZM360 573Q395 575 436 585T520 614T602 659T671 721T720 798T737 891Q735 965 708 1000T633 1036Q588 1036 552 1014T486 956T436
871T399 772T374 669T360 573Z" />
<glyph unicode="f" glyph-name="f" horiz-adv-x="705" d="M247 998H115L133 1087L275 1150L290 1237Q306 1330 345 1409T443 1546T574 1637T733 1670Q774 1670 817 1666T901 1644L840 1471Q831 1478 818 1486T788 1502T750 1514T702 1519Q663 1519 637 1504T594
1457T565 1381T545 1274L529 1155H762L743 998H508L383 -25Q370 -127 336 -215T247 -370T117 -474T-53 -513Q-80 -513 -106 -512T-156 -508T-199 -502T-230 -495L-175 -319Q-170 -321 -151 -328T-108 -343T-58 -356T-14 -362Q35 -362 65 -305T109 -145L247 998Z"
/>
<glyph unicode="g" glyph-name="g" horiz-adv-x="1186" d="M161 -273Q175 -282 203 -295T269 -320T348 -341T431 -350Q488 -350 528 -343T595 -313T638 -251T663 -145L697 98Q672 74 642 53T576 16T500 -10T413 -20Q324 -20 260 13T154 103T92 239T72 407Q72 494
91 584T149 758T243 915T374 1044T539 1131T739 1163Q802 1163 864 1149T971 1119L1112 1163L932 -77Q920 -160 889 -225T814 -338T714 -420T598 -474T475 -504T354 -513Q319 -513 283 -510T213 -500T153 -487T111 -473L161 -273ZM500 138Q533 138 564 149T623
177T675 218T720 265L829 1010Q803 1022 773 1027T711 1032Q645 1032 593 1005T500 930T430 822T383 692T356 554T347 420Q347 284 388 211T500 138Z" />
<glyph unicode="h" glyph-name="h" horiz-adv-x="1268" d="M281 1482L159 1525L175 1608L513 1650L566 1623L476 916Q512 969 556 1014T650 1092T757 1144T873 1163Q928 1163 973 1148T1050 1097T1101 1003T1119 861Q1119 831 1114 788T1102 695T1085 597T1069
505Q1063 467 1056 427T1042 346T1031 268T1025 196Q1024 160 1032 146T1055 131Q1063 131 1072 133T1092 141T1119 157T1154 182L1183 119Q1176 108 1154 85T1097 39T1014 -3T911 -21Q862 -21 830 -10T780 20T754 68T748 131Q749 159 753 195T764 273T779 357T795
443Q803 485 812 535T828 637T841 741T846 838Q846 886 839 914T819 959T788 980T749 985Q714 985 675 966T597 912T521 833T453 736L359 0H95L281 1482Z" />
<glyph unicode="i" glyph-name="i" horiz-adv-x="655" d="M136 121Q143 181 155 268T182 466T216 706T255 980L99 1031L117 1112L491 1163L543 1139L409 207Q398 131 438 131Q455 131 477 143T537 188L567 125Q559 114 537 90T480 42T399 -1T297 -20Q213 -20 171
16T136 121ZM435 1363Q406 1363 381 1375T336 1407T306 1453T296 1507Q297 1542 311 1572T348 1626T401 1662T467 1676Q501 1676 529 1665T576 1634T604 1590T613 1538Q612 1503 600 1471T564 1415T509 1377T435 1363Z" />
<glyph unicode="j" glyph-name="j" horiz-adv-x="650" d="M253 980L92 1031L112 1112L493 1163L543 1139L409 0Q394 -129 350 -227T242 -390T96 -489T-74 -523Q-128 -523 -169 -514T-230 -486L-193 -385Q-186 -388 -176 -390T-155 -393T-135 -396T-121 -397Q-49
-397 -1 -359T77 -256T125 -108T152 65L253 980ZM430 1363Q401 1363 376 1375T331 1407T301 1453T291 1507Q292 1542 306 1572T343 1626T396 1662T462 1676Q496 1676 524 1665T571 1634T599 1590T608 1538Q607 1503 595 1471T559 1415T504 1377T430 1363Z" />
<glyph unicode="k" glyph-name="k" horiz-adv-x="1118" d="M278 1482L156 1525L172 1608L510 1650L563 1623L348 0H84L278 1482ZM437 610L440 611H437Q481 641 521 667T600 724T677 793T756 885Q786 925 796 963T809 1042Q812 1076 827 1099T863 1136T910 1157T959
1163Q1013 1163 1044 1131T1077 1050Q1078 1010 1065 977T1031 915Q1000 872 956 832T861 757T760 691T664 639L890 245Q916 201 947 177T1001 152Q1020 152 1052 165T1115 204L1149 138Q1134 117 1106 90T1038 39T950 -3T849 -20Q785 -20 742 9T673 95L437 610Z"
/>
<glyph unicode="l" glyph-name="l" horiz-adv-x="621" d="M113 115Q113 131 115 154T120 192L297 1482L170 1525L190 1608L524 1650L574 1623L381 207Q376 172 382 152T409 131Q424 131 445 141T509 187L538 125Q531 114 509 90T454 42T376 -1T278 -20Q243 -20
213 -13T161 11T126 53T113 115Z" />
<glyph unicode="m" glyph-name="m" horiz-adv-x="1918" d="M237 962L134 1022L151 1111L458 1163L509 1139L491 930Q527 979 570 1021T663 1095T766 1145T876 1163Q927 1163 969 1151T1043 1109T1095 1034T1121 919Q1157 972 1201 1017T1296 1094T1403 1145T1518
1163Q1572 1163 1617 1147T1694 1094T1745 1001T1764 861Q1764 832 1759 789T1747 697T1732 599T1716 506Q1703 428 1690 347T1674 197Q1673 161 1681 146T1704 131Q1712 131 1721 133T1741 142T1768 159T1803 187L1833 125Q1825 114 1803 90T1746 41T1665 -2T1562
-21Q1513 -21 1482 -10T1432 22T1407 70T1401 130Q1402 159 1406 196T1416 274T1429 360T1445 447Q1452 488 1460 537T1475 638T1486 741T1491 837Q1491 885 1484 913T1466 958T1438 979T1401 984Q1368 984 1332 968T1259 922T1187 852T1121 763Q1116 700 1109
633T1093 505L1031 0H765L822 443Q828 485 834 535T846 636T854 739T857 835Q857 886 851 915T832 960T800 980T756 985Q724 985 686 967T610 918T535 844T468 752L365 0H106L237 962Z" />
<glyph unicode="n" glyph-name="n" horiz-adv-x="1279" d="M237 963L135 1022L152 1111L460 1163L510 1139L492 931Q529 981 573 1023T667 1097T771 1145T883 1163Q938 1163 983 1148T1060 1097T1111 1003T1129 861Q1129 831 1124 788T1112 695T1095 597T1079
505Q1072 467 1065 427T1052 346T1041 268T1035 196Q1034 160 1042 146T1065 131Q1080 131 1099 140T1154 177L1183 114Q1176 104 1155 82T1100 37T1021 -3T921 -21Q872 -21 840 -10T790 22T764 70T758 131Q759 159 763 195T774 273T789 357T805 443Q812 485 821
535T838 637T851 741T856 838Q856 886 850 914T831 959T800 980T759 985Q726 985 688 967T611 916T535 839T468 745L366 0H107L237 963Z" />
<glyph unicode="o" glyph-name="o" horiz-adv-x="1170" d="M74 439Q71 581 112 711T232 942T422 1103T670 1163Q771 1163 848 1132T979 1042T1060 898T1091 703Q1093 609 1076 519T1022 348T933 200T813 84T666 8T494 -20Q393 -20 316 11T186 100T105 244T74 439ZM534
105Q585 105 625 131T697 203T749 308T784 434T803 570T807 705Q804 872 762 952T635 1033Q584 1033 543 1007T471 936T417 832T380 706T360 571T356 438Q360 270 401 188T534 105Z" />
<glyph unicode="p" glyph-name="p" horiz-adv-x="1195" d="M277 -520H23L225 982L111 1032L130 1111L457 1163L507 1139L493 1037Q517 1062 547 1085T612 1125T689 1152T777 1163Q864 1163 928 1133T1035 1046T1099 909T1121 730Q1121 639 1101 549T1041 375T945
219T816 94T655 11T465 -20Q436 -20 407 -17T348 -8L277 -520ZM368 134Q394 120 425 115T494 110Q557 110 607 136T697 208T764 313T810 442T837 582T846 723Q846 785 836 837T806 926T757 983T690 1004Q655 1004 624 993T565 962T514 918T471 868L368 134Z" />
<glyph unicode="q" glyph-name="q" horiz-adv-x="1191" d="M409 -20Q320 -20 257 13T152 103T92 239T72 407Q72 494 90 584T146 758T239 915T368 1044T533 1131T734 1163Q763 1163 794 1159T857 1149T916 1135T966 1119L967 1120L1095 1148L904 -293Q902 -306
903 -319T908 -343T919 -360T935 -367Q952 -367 974 -355T1034 -311L1063 -374Q1056 -385 1034 -409T976 -457T893 -499T789 -518Q745 -518 714 -507T664 -475T637 -427T631 -366L696 105Q672 80 642 58T575 18T498 -10T409 -20ZM496 138Q530 138 562 150T622 181T675
224T719 274L821 1011Q796 1022 768 1027T707 1032Q641 1032 589 1005T496 930T427 822T380 692T354 554T345 420Q345 284 385 211T496 138Z" />
<glyph unicode="r" glyph-name="r" horiz-adv-x="840" d="M235 962L131 1022L149 1111L434 1163L484 1139V889Q500 934 528 982T598 1070T692 1137T812 1163Q833 1163 851 1158T878 1146L821 864Q809 874 779 880T716 886Q683 886 650 879T584 854T522 807T464
736L367 0H108L235 962Z" />
<glyph unicode="s" glyph-name="s" horiz-adv-x="879" d="M67 220Q83 207 110 191T172 160T248 135T335 125Q364 125 395 130T453 149T496 190T513 258Q513 294 499 324T461 381T405 434T335 487Q305 509 270 541T204 617T153 714T133 833Q133 913 167 974T259
1078T394 1141T559 1163Q599 1163 640 1160T716 1151T778 1139T817 1126L777 939Q770 948 752 963T706 992T642 1016T561 1027Q529 1027 500 1021T446 999T407 960T388 901Q386 866 397 835T430 775T485 718T557 660Q596 630 634 596T703 519T751 425T770 310Q770
224 734 162T636 60T496 0T333 -20Q286 -20 238 -14T146 1T71 21T25 44L67 220Z" />
<glyph unicode="t" glyph-name="t" horiz-adv-x="730" d="M128 159Q128 164 128 172T130 200T136 254T148 345L234 1005H114L136 1103L259 1150Q278 1169 298 1199T338 1266T374 1341T406 1416H548L514 1155H749L728 1005H495L412 390Q405 337 401 298T396 232Q396
184 413 165T475 145Q494 145 518 150T567 166T615 188T655 215L677 136Q657 113 622 86T539 35T435 -4T316 -20Q279 -20 245 -12T185 18T144 73T128 159Z" />
<glyph unicode="u" glyph-name="u" horiz-adv-x="1242" d="M137 245Q137 279 140 321T149 410T162 504T175 597L228 962L115 1032L132 1121L455 1163L505 1139L436 589Q425 499 414 422T402 284Q402 240 410 211T433 165T470 140T521 133Q553 133 584 142T645
167T700 203T747 247L869 1155H1128L1002 208Q992 132 1033 132Q1041 132 1049 134T1069 143T1096 161T1132 189L1161 126Q1154 114 1132 90T1075 42T995 0T898 -19Q811 -19 776 23T751 135Q725 106 692 79T616 29T523 -6T410 -20Q359 -20 310 -7T223 37T161 119T137
245Z" />
<glyph unicode="v" glyph-name="v" horiz-adv-x="1070" d="M255 355L145 945Q139 976 129 988T104 1001Q87 1002 69 993T35 973L6 1043Q12 1052 32 1071T82 1111T152 1147T238 1163Q321 1163 358 1128T405 1026L491 405L512 205L606 353Q640 412 671 469T727 587T770
711T796 851Q798 876 794 900T783 949T771 996T765 1040Q765 1097 798 1130T892 1163Q936 1163 965 1147T1011 1103T1035 1036T1042 955Q1042 909 1029 855T993 744T940 627T875 511T807 401T740 303L495 -9L323 -21L255 355Z" />
<glyph unicode="w" glyph-name="w" horiz-adv-x="1720" d="M251 355L147 945Q141 976 131 988T105 1001Q85 1002 69 993T36 973L6 1043Q12 1052 32 1072T84 1112T155 1147T240 1163Q323 1163 361 1128T408 1026L479 390L497 192L579 417L850 1155H1076L1166 373L1189
192L1289 358Q1308 390 1333 442T1383 557T1424 693T1445 837Q1446 869 1442 896T1431 949T1420 996T1415 1040Q1415 1097 1448 1130T1542 1163Q1586 1163 1614 1148T1659 1104T1683 1037T1690 950Q1690 904 1677 850T1641 737T1588 618T1524 500T1458 389T1395
292L1195 -8L982 -19L929 355L893 680L890 821L841 680L696 325L546 -6L320 -20L251 355Z" />
<glyph unicode="x" glyph-name="x" horiz-adv-x="1019" d="M386 587L212 939Q197 968 183 988T148 1008Q128 1008 111 1002T66 976L29 1045Q35 1054 57 1073T114 1113T194 1148T292 1163Q365 1163 402 1136T456 1059L556 762L812 1155H1071L627 574L805 233Q812
219 821 204T839 175T859 154T880 145Q895 145 917 154T981 197L1021 128Q1015 117 992 93T931 44T842 -1T731 -20Q695 -20 670 -13T626 9T597 42T576 85L460 403L202 0H-61L386 587Z" />
<glyph unicode="y" glyph-name="y" horiz-adv-x="1078" d="M-74 -289Q-65 -295 -45 -306T5 -328T71 -347T147 -355Q186 -355 226 -341T307 -292T388 -201T469 -62H341L151 945Q143 976 135 988T110 1001Q98 1001 80 995T31 963L2 1033Q9 1043 30 1064T84 1108T158
1146T245 1163Q287 1163 316 1154T365 1126T394 1083T411 1026Q417 993 426 934T445 801T467 647T489 493T507 360T521 267L540 51L650 271Q684 346 711 413T759 545T793 677T812 818Q813 857 809 884T797 936T785 984T779 1040Q779 1097 813 1130T907 1163Q949
1163 977 1149T1024 1108T1049 1044T1057 960Q1057 883 1035 799T980 630T906 463T829 310Q756 165 703 64T610 -108T538 -227T477 -313Q452 -349 417 -384T336 -448T230 -494T98 -512Q68 -512 35 -508T-29 -499T-84 -487T-123 -476L-74 -289V-289Z" />
<glyph unicode="z" glyph-name="z" horiz-adv-x="1035" d="M632 829L750 931L404 932Q366 932 335 920T281 887T243 838T225 776H149Q147 799 147 832T149 903T156 979T170 1051T192 1108T223 1142Q235 1149 260 1156T324 1163Q362 1163 410 1161T509 1154T614
1146T716 1137T808 1131T882 1128Q911 1128 941 1136T994 1161L996 1163L1051 1103L402 298L297 205H672Q710 205 742 217T798 252T837 303T857 367H930Q931 344 931 311T930 241T922 165T908 94T886 35T855 -3Q842 -12 817 -17T753 -23Q715 -23 665 -21T558 -15T444
-7T333 1T234 7T158 10Q148 10 135 9T108 4T81 -4T57 -18L53 -23L-12 39L632 829Z" />
<glyph unicode="{" glyph-name="braceleft" horiz-adv-x="1034" d="M254 -65Q254 -60 258 -30T268 47T283 151T300 268Q320 406 346 579Q346 596 332 613T294 646Q262 668 218 685T129 714L147 838Q196 850 248 866T339 903Q366 917 383 933T404 966L485 1498Q497
1572 519 1621T575 1698T655 1738T760 1750Q793 1750 837 1743T923 1726Q971 1715 1020 1703Q1016 1679 1012 1659Q1009 1642 1006 1625T1003 1601H727L631 970Q625 929 599 900T533 846Q522 839 499 828T450 805Q421 792 388 776Q433 753 470 730T530 684Q553
661 564 634T571 575L476 -55H751Q749 -61 747 -78T743 -114Q740 -136 737 -161Q703 -171 671 -179T607 -194T539 -204T462 -208Q415 -208 377 -201T311 -178T269 -134T254 -65Z" />
<glyph unicode="|" glyph-name="bar" horiz-adv-x="854" d="M350 1780H543V-186H350V1780Z" />
<glyph unicode="}" glyph-name="braceright" horiz-adv-x="1034" d="M796 1611Q796 1606 792 1576T782 1499T767 1395T750 1278Q730 1140 704 967Q704 950 718 933T756 900Q788 878 832 861T921 832L903 708Q854 696 802 680T711 643Q684 629 667 613T646 580L565
48Q553 -26 531 -75T475 -152T395 -192T290 -204Q257 -204 213 -197T127 -180Q79 -169 30 -157Q34 -133 38 -113Q41 -96 44 -79T47 -55H323L419 576Q425 617 451 646T517 700Q528 707 551 718T600 741Q629 754 662 770Q617 793 580 816T520 862Q497 885 486 912T479
971L574 1601H299Q301 1607 303 1624T307 1660Q310 1682 313 1707Q347 1717 379 1725T443 1740T511 1750T588 1754Q635 1754 673 1747T739 1724T781 1680T796 1611Z" />
<glyph unicode="~" glyph-name="asciitilde" horiz-adv-x="1137" d="M130 862Q142 898 171 935T241 1003T334 1052T442 1072Q484 1072 518 1060T581 1030T637 991T688 952T738 922T794 910Q861 910 908 939T991 1022L1079 926Q1068 885 1039 846T967 776T872 725T762
706Q719 706 684 718T620 749T564 789T513 829T461 860T405 873Q345 873 294 846T208 766L130 862Z" />
<glyph unicode="&#xa1;" glyph-name="exclamdown" horiz-adv-x="701" d="M354 -434H64L314 836H485L354 -434ZM610 1222Q608 1183 591 1151T547 1096T489 1061T426 1048Q390 1048 364 1060T322 1091T298 1137T292 1191Q294 1233 312 1265T357 1320T416 1353T482
1365Q509 1365 533 1355T575 1326T602 1281T610 1222Z" />
<glyph unicode="&#xa2;" glyph-name="cent" horiz-adv-x="1056" d="M403 -9Q272 22 200 135T127 440Q126 512 139 587T179 735T247 875T342 996T465 1091T615 1149L664 1358H814L767 1162Q822 1160 881 1150T982 1120L910 867Q889 880 861 904T803 952T743 993T685
1011Q633 1011 582 972T490 860T425 686T402 460Q403 376 416 316T453 218T512 162T592 144Q634 144 669 152T735 176T796 214T856 265L907 173Q889 148 857 118T780 60T678 11T551 -17L515 -215H365L403 -9V-9Z" />
<glyph unicode="&#xa3;" glyph-name="sterling" horiz-adv-x="1382" d="M39 -20Q20 -20 3 -16T-28 -1T-47 27T-52 70Q-50 97 -29 124T28 174T108 210T203 224Q216 243 229 271T254 330T274 395T288 458L334 734H173L191 890H361L380 1002Q391 1075 418 1145T484
1278T575 1393T688 1484T817 1544T961 1565Q1003 1565 1043 1561T1120 1547T1188 1520T1245 1476L1137 1287Q1133 1296 1116 1317T1068 1359T996 1398T900 1415Q866 1415 829 1400T759 1345T697 1235T650 1055Q649 1048 646 1032T640 994T631 946T620 890H904L887
734H591Q584 697 580 670T574 634Q559 541 535 472T483 351T430 261T383 193Q425 184 470 172T562 149T657 131T753 123Q847 123 908 140T1005 186T1055 255T1069 340Q1069 365 1061 389T1039 435T1011 472T981 500L1153 654Q1184 632 1213 600T1265 527T1301 440T1315
342Q1315 277 1291 213T1208 96T1053 12T812 -20Q733 -20 662 -9T526 20T399 57T276 93Q259 74 233 54T175 18T108 -9T39 -20Z" />
<glyph unicode="&#xa4;" glyph-name="currency" horiz-adv-x="1540" d="M418 443Q382 496 362 558T342 690Q342 758 361 819T416 934L215 1135L342 1263L545 1059Q596 1091 656 1109T782 1128Q851 1128 913 1108T1029 1052L1228 1250L1355 1122L1155 922Q1187
871 1204 813T1222 690Q1222 623 1203 563T1150 450L1353 248L1225 121L1023 323Q971 289 910 271T782 252Q717 252 658 269T548 318L346 116L218 243L418 443ZM533 690Q533 637 552 590T605 507T684 451T782 430Q834 430 879 450T958 506T1011 589T1031 690Q1031
744 1012 791T958 874T879 930T782 951Q730 951 685 931T606 875T553 792T533 690Z" />
<glyph unicode="&#xa5;" glyph-name="yen" horiz-adv-x="1483" d="M340 97L588 127L618 376H234L250 515H634L659 716H273L289 857H595L298 1414L182 1436L195 1542H785L772 1436L594 1415L778 1010L826 884L906 1014L1168 1419L1039 1436L1052 1542H1563L1550
1437L1417 1409L997 857H1285L1269 716H897L872 515H1245L1229 376H855L825 127L1081 97L1072 0H330L340 97Z" />
<glyph unicode="&#xa6;" glyph-name="brokenbar" horiz-adv-x="854" d="M350 1780H543V901H350V1780ZM350 693H543V-186H350V693Z" />
<glyph unicode="&#xa7;" glyph-name="section" horiz-adv-x="1194" d="M101 234H247L278 18Q314 -21 380 -39T522 -57Q563 -57 607 -46T690 -11T754 52T785 150Q788 197 761 232T688 297T583 354T461 410T339 473T235 553T163 658T141 795Q146 881 185 953T280
1083Q245 1125 226 1177T211 1296Q215 1360 240 1413T304 1507T394 1580T501 1632T617 1663T731 1673Q809 1673 874 1666T990 1648T1077 1624T1134 1598L1088 1283H946L905 1491Q879 1517 830 1533T709 1549Q673 1549 630 1542T548 1516T481 1460T449 1366Q446
1312 472 1272T544 1200T649 1141T769 1085T890 1023T994 945T1064 842T1085 704Q1080 610 1044 534T955 401Q988 359 1006 309T1020 195Q1016 133 993 81T932 -13T844 -88T738 -142T620 -175T499 -186Q430 -186 359 -179T227 -159T119 -133T53 -106L101 234ZM366
868Q363 821 383 785T438 718T522 663T623 612T730 561T835 503Q849 527 857 553T867 608Q870 656 851 694T797 764T715 821T616 873T508 924T404 981Q389 956 379 928T366 868Z" />
<glyph unicode="&#xa8;" glyph-name="dieresis" horiz-adv-x="809" d="M604 1363Q577 1363 553 1375T512 1407T484 1453T475 1507Q476 1541 488 1572T522 1626T572 1662T636 1676Q668 1676 693 1665T736 1634T763 1590T772 1538Q771 1503 759 1471T726 1415T674
1377T604 1363ZM168 1363Q141 1363 117 1375T76 1407T48 1453T39 1507Q40 1541 52 1572T86 1626T136 1662T200 1676Q232 1676 257 1665T300 1634T327 1590T336 1538Q335 1503 323 1471T290 1415T238 1377T168 1363Z" />
<glyph unicode="&#xa9;" glyph-name="copyright" horiz-adv-x="1768" d="M168 806Q168 912 195 1009T273 1192T393 1346T548 1465T730 1542T933 1569Q1038 1569 1136 1542T1319 1466T1474 1347T1594 1192T1671 1010T1699 806Q1699 700 1672 602T1594 420T1474
265T1319 146T1136 69T933 42Q828 42 731 69T548 145T393 265T273 419T196 602T168 806ZM297 806Q297 717 319 634T383 479T481 348T610 247T762 181T933 158Q1022 158 1104 181T1257 246T1385 348T1484 479T1547 634T1570 806Q1570 895 1548 977T1484 1132T1386
1263T1257 1365T1104 1430T933 1454Q844 1454 763 1431T610 1365T482 1264T383 1132T320 978T297 806ZM542 802Q541 892 570 973T654 1114T788 1211T969 1247Q1003 1247 1038 1244T1104 1236T1162 1224T1203 1209V989H1114L1065 1109Q1043 1129 1011 1138T938 1148Q893
1148 854 1129T785 1073T739 983T721 861Q720 756 741 685T797 571T874 508T959 489Q1031 489 1088 507T1179 544L1213 458Q1192 440 1160 424T1090 395T1008 374T920 366Q830 366 760 400T642 494T568 633T542 802Z" />
<glyph unicode="&#xaa;" glyph-name="ordfeminine" horiz-adv-x="854" d="M308 743Q250 743 206 763T131 822T85 916T69 1040Q69 1103 87 1167T138 1291T219 1403T326 1493T453 1554T598 1577Q643 1577 689 1569T770 1549L895 1586L776 906Q773 881 776 867T788
852Q796 852 808 855T844 872L872 825Q868 819 848 806T798 778T734 754T668 743Q611 743 582 778T561 869Q542 846 519 824T465 783T396 754T308 743ZM413 871Q432 871 452 877T491 893T529 917T562 944L648 1442Q612 1475 573 1475Q500 1475 449 1437T365 1338T318
1203T303 1055Q303 965 327 918T413 871Z" />
<glyph unicode="&#xab;" glyph-name="guillemotleft" horiz-adv-x="1878" d="M487 690L1199 1091L1247 946L762 610L1156 279L1071 147L465 530L487 690ZM906 690L1618 1091L1666 946L1181 610L1575 279L1490 147L884 530L906 690Z" />
<glyph unicode="&#xac;" glyph-name="logicalnot" horiz-adv-x="1370" d="M228 863H1198L1136 322H939L984 711H211L228 863Z" />
<glyph unicode="&#xad;" glyph-name="uni00AD" horiz-adv-x="1706" />
<glyph unicode="&#xae;" glyph-name="registered" horiz-adv-x="1768" d="M168 806Q168 912 195 1009T273 1192T393 1346T548 1465T730 1542T933 1569Q1038 1569 1136 1542T1319 1466T1474 1347T1594 1192T1671 1010T1699 806Q1699 700 1672 602T1594 420T1474
265T1319 146T1136 69T933 42Q828 42 731 69T548 145T393 265T273 419T196 602T168 806ZM297 806Q297 717 319 634T383 479T481 348T610 247T762 181T933 158Q1022 158 1104 181T1257 246T1385 348T1484 479T1547 634T1570 806Q1570 895 1548 977T1484 1132T1386
1263T1257 1365T1104 1430T933 1454Q844 1454 763 1431T610 1365T482 1264T383 1132T320 978T297 806ZM567 449L650 469V1134L567 1156V1240H716Q743 1239 762 1239T806 1240T864 1242T954 1245Q1033 1245 1093 1229T1195 1182T1257 1109T1280 1014Q1280 974 1273
935T1242 862T1174 799T1055 752Q1104 724 1134 684T1187 602T1230 523T1281 465Q1295 458 1308 456T1338 453V375H1153Q1133 375 1118 393T1088 442T1057 510T1018 589T965 667T893 735H815V469L912 449V375H567V449ZM815 843Q841 838 875 837T947 835Q983 835
1011 847T1058 881T1088 931T1098 993Q1098 1032 1086 1060T1051 1106T997 1132T927 1140Q912 1140 900 1140T875 1140T848 1137T815 1130V843Z" />
<glyph unicode="&#xaf;" glyph-name="overscore" horiz-adv-x="614" d="M28 1594H568L566 1415H26L28 1594Z" />
<glyph unicode="&#xb0;" glyph-name="degree" horiz-adv-x="928" d="M523 945Q451 945 390 971T285 1043T217 1148T193 1278Q194 1349 221 1410T294 1515T404 1585T543 1611Q615 1611 676 1585T781 1513T851 1408T875 1278Q874 1206 847 1145T773 1040T662 970T523
945ZM530 1084Q570 1084 604 1098T663 1139T702 1200T717 1278Q718 1318 704 1353T666 1415T609 1456T537 1472Q497 1472 463 1458T405 1417T366 1356T351 1278Q350 1238 363 1203T401 1141T459 1100T530 1084Z" />
<glyph unicode="&#xb1;" glyph-name="plusminus" horiz-adv-x="1350" d="M574 526L600 690L459 683H249L267 861H487L626 850L639 1015L666 1245H864L838 1015L809 851L924 861H1164L1146 683H896L784 690Q782 648 779 608T773 526L746 285H547L574 526ZM197 180H1056L1039
15H180L197 180Z" />
<glyph unicode="&#xb2;" glyph-name="twosuperior" horiz-adv-x="1163" d="M175 733Q215 755 275 793T403 879T539 983T661 1100T750 1222T784 1343Q784 1376 772 1403T736 1449T681 1478T610 1489Q529 1489 451 1452T309 1346L234 1450Q256 1480 301 1516T404
1583T531 1635T670 1657Q770 1658 837 1635T946 1573T1004 1489T1021 1397Q1021 1307 982 1227T873 1071T705 924T492 778L920 813L1010 948L1113 919L1023 637H220L175 733Z" />
<glyph unicode="&#xb3;" glyph-name="threesuperior" horiz-adv-x="1071" d="M187 748Q213 735 246 725T313 709T379 700T435 697Q484 697 536 707T632 743T704 810T734 915Q735 950 723 975T687 1016T631 1041T559 1050L370 1005L395 1154Q450 1164 509 1183T619
1233T703 1308T741 1411Q744 1456 706 1484T585 1511Q519 1510 448 1485T316 1417L275 1534Q315 1564 362 1587T459 1625T561 1649T664 1658Q746 1658 807 1642T909 1595T970 1523T989 1430Q988 1374 967 1330T908 1251T819 1190T706 1143Q788 1143 841 1120T924
1063T965 988T976 912Q974 820 927 752T804 638T635 571T450 548Q423 548 387 552T313 566T237 588T170 620L187 748Z" />
<glyph unicode="&#xb4;" glyph-name="acute" horiz-adv-x="559" d="M50 1312L367 1743L534 1566Q525 1549 500 1522T439 1462T362 1395T278 1331T197 1276T128 1241L50 1312Z" />
<glyph unicode="&#xb5;" glyph-name="mu" horiz-adv-x="1364" d="M306 -372H81L189 358Q198 429 209 498T232 637T253 781T270 933Q271 970 262 985T238 1000Q223 1000 206 993T167 971L137 1037Q144 1045 164 1064T216 1104T292 1141T394 1157Q427 1157 455 1151T503
1129T533 1089T542 1028Q537 948 525 859T498 681Q491 637 484 595T470 511T461 425T457 334Q457 278 467 242T494 183T535 153T586 144Q623 144 655 157T716 191T767 236T811 283L926 1148H1186L1061 208Q1051 132 1092 132Q1108 132 1129 143T1171 169L1201 106Q1193
93 1172 72T1118 31T1044 -4T957 -19Q927 -19 901 -14T857 7T831 49T827 118Q807 98 781 74T718 29T636 -6T531 -20Q484 -20 438 -6T366 34L306 -372Z" />
<glyph unicode="&#xb6;" glyph-name="paragraph" horiz-adv-x="1364" d="M204 87L389 117L469 726Q391 727 326 754T213 829T138 945T110 1095Q109 1206 143 1294T250 1443T439 1538T715 1571Q778 1571 826 1569T918 1563T1008 1556T1115 1552H1393L1382 1449L1215
1416Q1197 1261 1176 1097T1133 766T1090 436T1051 116L1196 86L1187 0H801L976 1414H782L605 0H196L204 87Z" />
<glyph unicode="&#xb7;" glyph-name="middot" horiz-adv-x="701" d="M189 768Q191 807 207 839T247 894T302 929T364 942Q400 942 426 930T468 899T492 853T498 799Q496 757 479 725T436 670T378 637T313 625Q286 625 263 635T222 664T196 709T189 768Z" />
<glyph unicode="&#xb8;" glyph-name="cedilla" horiz-adv-x="479" d="M327 34L395 30Q405 15 413 -11T427 -71T435 -141T435 -212Q426 -352 358 -413T152 -474Q132 -474 107 -472T57 -466T12 -457T-16 -446L19 -304Q32 -311 51 -315T94 -319Q128 -319 158 -310T212
-280T251 -224T270 -137Q275 -77 270 -36T260 30L327 34Z" />
<glyph unicode="&#xb9;" glyph-name="onesuperior" horiz-adv-x="1020" d="M253 734L469 760L553 1385L312 1338L303 1446Q333 1455 371 1470T451 1504T534 1543T611 1583T674 1618T714 1645L808 1624L689 760L909 733L898 636H242L253 734Z" />
<glyph unicode="&#xba;" glyph-name="ordmasculine" horiz-adv-x="854" d="M413 733Q338 734 276 759T168 830T98 940T73 1085Q73 1206 116 1300T227 1459T379 1557T547 1589Q629 1588 693 1562T800 1488T865 1376T888 1234Q888 1112 847 1019T740 861T588 765T413
733ZM424 843Q494 842 539 875T610 963T647 1083T657 1216Q657 1276 648 1325T622 1411T580 1466T524 1486Q481 1486 448 1469T390 1422T349 1355T322 1274T307 1187T302 1103Q302 1043 311 995T337 914T376 862T424 843Z" />
<glyph unicode="&#xbb;" glyph-name="guillemotright" horiz-adv-x="1878" d="M876 548L164 147L116 292L601 628L207 959L292 1091L898 708L876 548ZM1552 548L840 147L792 292L1277 628L883 959L968 1091L1574 708L1552 548Z" />
<glyph unicode="&#xbc;" glyph-name="onequarter" horiz-adv-x="2560" d="M1909 162H1389L1352 257L1942 1114L2065 1115L2173 1011L1690 403L1587 290L1930 310L1965 562L2190 585L2154 323L2381 337L2361 162H2132L2087 -175H1862L1909 162ZM1477 1530H1666L985
0H796L1477 1530ZM284 734L500 760L584 1385L343 1338L334 1446Q364 1455 402 1470T482 1504T565 1543T642 1583T705 1618T745 1645L839 1624L720 760L940 733L929 636H273L284 734Z" />
<glyph unicode="&#xbd;" glyph-name="onehalf" horiz-adv-x="2560" d="M1410 19Q1450 41 1510 79T1638 165T1774 269T1896 386T1985 508T2019 629Q2019 662 2007 689T1971 735T1916 764T1845 775Q1764 775 1686 738T1544 632L1469 736Q1491 766 1536 802T1639
869T1766 921T1905 943Q2005 944 2072 921T2181 859T2239 775T2256 683Q2256 593 2217 513T2108 357T1940 210T1727 64L2155 99L2245 234L2348 205L2258 -77H1455L1410 19ZM1477 1530H1666L985 0H796L1477 1530ZM284 734L500 760L584 1385L343 1338L334 1446Q364
1455 402 1470T482 1504T565 1543T642 1583T705 1618T745 1645L839 1624L720 760L940 733L929 636H273L284 734Z" />
<glyph unicode="&#xbe;" glyph-name="threequarters" horiz-adv-x="2568" d="M1909 162H1389L1352 257L1942 1114L2065 1115L2173 1011L1690 403L1587 290L1930 310L1965 562L2190 585L2154 323L2381 337L2361 162H2132L2087 -175H1862L1909 162ZM229 748Q255
735 288 725T355 709T421 700T477 697Q526 697 578 707T674 743T746 810T776 915Q777 950 765 975T729 1016T673 1041T601 1050L412 1005L437 1154Q492 1164 551 1183T661 1233T745 1308T783 1411Q786 1456 748 1484T627 1511Q561 1510 490 1485T358 1417L317 1534Q357
1564 404 1587T501 1625T603 1649T706 1658Q788 1658 849 1642T951 1595T1012 1523T1031 1430Q1030 1374 1009 1330T950 1251T861 1190T748 1143Q830 1143 883 1120T966 1063T1007 988T1018 912Q1016 820 969 752T846 638T677 571T492 548Q465 548 429 552T355
566T279 588T212 620L229 748ZM1505 1530H1694L1013 0H824L1505 1530Z" />
<glyph unicode="&#xbf;" glyph-name="questiondown" horiz-adv-x="1021" d="M608 1119Q549 1119 515 1155T481 1248Q481 1291 498 1325T543 1384T603 1422T669 1435Q699 1435 723 1425T765 1396T791 1354T800 1302Q800 1260 782 1226T736 1168T674 1132T608 1119ZM73
4Q73 98 97 167T162 287T253 377T358 449T463 513T556 582T622 668T649 781Q649 813 639 844T626 893L784 946L799 945Q812 930 824 907T845 856T859 797T864 734Q864 677 838 629T767 539T666 460T547 387Q462 341 401 296T314 209Q306 188 301 162T294 112Q292
42 318 -17T393 -120T507 -187T653 -212Q698 -212 751 -200T847 -166L805 -346Q794 -357 769 -368T711 -389T642 -403T575 -409Q433 -409 337 -374T183 -280T99 -148T73 4Z" />
<glyph unicode="&#xc0;" glyph-name="Agrave" horiz-adv-x="1359" d="M687 1530H960L1210 128L1368 96L1362 0H773L779 96L925 125L880 426H349L213 126L381 96L374 0H-141L-132 96L7 125L687 1530ZM860 562L768 1177L758 1330L410 562H860ZM834 1592Q798 1605
747 1631T646 1692T552 1766T490 1846L650 2007L920 1665L834 1592V1592Z" />
<glyph unicode="&#xc1;" glyph-name="Aacute" horiz-adv-x="1359" d="M687 1530H960L1210 128L1368 96L1362 0H773L779 96L925 125L880 426H349L213 126L381 96L374 0H-141L-132 96L7 125L687 1530ZM860 562L768 1177L758 1330L410 562H860ZM744 1665L1020 2007L1175
1846Q1155 1806 1112 1767T1018 1693T916 1632T828 1592L744 1665Z" />
<glyph unicode="&#xc2;" glyph-name="Acircumflex" horiz-adv-x="1359" d="M687 1530H960L1210 128L1368 96L1362 0H773L779 96L925 125L880 426H349L213 126L381 96L374 0H-141L-132 96L7 125L687 1530ZM860 562L768 1177L758 1330L410 562H860ZM476 1665L812
2007H990L1201 1665L1105 1606L884 1824L560 1607L476 1665Z" />
<glyph unicode="&#xc3;" glyph-name="Atilde" horiz-adv-x="1359" d="M687 1530H960L1210 128L1368 96L1362 0H773L779 96L925 125L880 426H349L213 126L381 96L374 0H-141L-132 96L7 125L687 1530ZM860 562L768 1177L758 1330L410 562H860ZM497 1801Q513 1833
540 1863T600 1917T672 1955T749 1970Q785 1970 812 1960T861 1933T901 1898T937 1863T974 1836T1017 1825Q1045 1825 1067 1834T1107 1859T1140 1893T1170 1930L1243 1819Q1230 1784 1205 1751T1146 1693T1073 1653T992 1638Q949 1638 920 1648T868 1675T829 1709T794
1744T756 1771T706 1783Q686 1783 666 1776T627 1756T591 1728T559 1697L497 1801Z" />
<glyph unicode="&#xc4;" glyph-name="Adieresis" horiz-adv-x="1359" d="M687 1530H960L1210 128L1368 96L1362 0H773L779 96L925 125L880 426H349L213 126L381 96L374 0H-141L-132 96L7 125L687 1530ZM860 562L768 1177L758 1330L410 562H860ZM1034 1679Q1007
1679 984 1689T945 1717T919 1759T909 1812Q909 1847 922 1876T956 1927T1006 1960T1066 1972Q1098 1972 1123 1962T1165 1935T1190 1894T1198 1843Q1197 1808 1185 1778T1152 1726T1101 1692T1034 1679ZM599 1679Q572 1679 549 1689T509 1718T483 1760T475 1812Q476
1847 488 1876T522 1927T571 1960T630 1972Q662 1972 687 1962T729 1935T754 1894T762 1843Q761 1808 750 1778T717 1726T666 1692T599 1679Z" />
<glyph unicode="&#xc5;" glyph-name="Aring" horiz-adv-x="1359" d="M672 1500Q593 1526 553 1584T518 1731Q522 1809 558 1862T648 1947T765 1993T885 2007Q953 2007 1007 1991T1100 1944T1157 1868T1173 1763Q1170 1710 1153 1668T1108 1594T1044 1539T965 1502L1210
128L1368 96L1362 0H773L779 96L925 125L880 426H349L213 126L381 96L374 0H-141L-132 96L7 125L672 1500ZM830 1592Q863 1592 894 1598T949 1621T988 1669T1006 1746Q1008 1780 998 1807T969 1854T922 1884T864 1895Q831 1895 800 1888T744 1863T704 1816T685
1742Q683 1710 694 1683T725 1635T772 1604T830 1592ZM860 562L768 1177L758 1330L410 562H860Z" />
<glyph unicode="&#xc6;" glyph-name="AE" horiz-adv-x="1947" d="M740 1401L426 1425L441 1530H1882L1860 1201H1701L1660 1396L1286 1416L1217 868L1636 883L1619 696L1201 717L1125 126L1621 156L1728 397L1886 374L1818 0H684L696 96L851 126L890 446H417L247
126L436 96L429 0H-163L-152 96L4 126L740 1401ZM906 582L1005 1397L923 1399L489 582H906Z" />
<glyph unicode="&#xc7;" glyph-name="Ccedilla" horiz-adv-x="1287" d="M364 -302Q377 -309 396 -313T439 -317Q473 -317 503 -308T557 -278T596 -222T615 -135Q619 -64 613 -15Q468 -11 367 45T201 191T108 395T77 632Q75 842 136 1011T306 1300T564 1483T889
1548Q964 1548 1020 1543T1117 1531T1189 1516T1246 1501L1282 1491L1217 1107H1032L1001 1392Q972 1406 935 1415T849 1424Q761 1424 692 1389T569 1295T479 1157T418 994T385 820T377 653Q380 540 398 444T453 276T547 164T686 123Q712 123 745 126T811 139T875
166T928 212Q935 220 945 246T967 305T988 367T1002 411H1163L1122 103Q1099 90 1066 74T987 41T886 11T759 -10Q771 -49 776 -104T780 -210Q771 -350 703 -411T497 -472Q477 -472 452 -470T402 -464T357 -455T329 -444L364 -302V-302Z" />
<glyph unicode="&#xc8;" glyph-name="Egrave" horiz-adv-x="1274" d="M806 1592Q770 1605 719 1631T618 1692T524 1766T462 1846L622 2007L892 1665L806 1592V1592ZM255 96L410 126L572 1400L433 1425L444 1530H1467L1445 1190H1281L1240 1396L850 1416L778 868L1219
883L1201 696L762 717L682 126L1192 156L1310 408L1468 385L1389 0H243L255 96Z" />
<glyph unicode="&#xc9;" glyph-name="Eacute" horiz-adv-x="1274" d="M716 1665L992 2007L1147 1846Q1127 1806 1084 1767T990 1693T888 1632T800 1592L716 1665ZM255 96L410 126L572 1400L433 1425L444 1530H1467L1445 1190H1281L1240 1396L850 1416L778 868L1219
883L1201 696L762 717L682 126L1192 156L1310 408L1468 385L1389 0H243L255 96Z" />
<glyph unicode="&#xca;" glyph-name="Ecircumflex" horiz-adv-x="1274" d="M255 96L410 126L572 1400L433 1425L444 1530H1467L1445 1190H1281L1240 1396L850 1416L778 868L1219 883L1201 696L762 717L682 126L1192 156L1310 408L1468 385L1389 0H243L255 96ZM448
1665L784 2007H962L1173 1665L1077 1606L856 1824L532 1607L448 1665Z" />
<glyph unicode="&#xcb;" glyph-name="Edieresis" horiz-adv-x="1274" d="M1006 1679Q979 1679 956 1689T917 1717T891 1759T881 1812Q881 1847 894 1876T928 1927T978 1960T1038 1972Q1070 1972 1095 1962T1137 1935T1162 1894T1170 1843Q1169 1808 1157 1778T1124
1726T1073 1692T1006 1679ZM571 1679Q544 1679 521 1689T481 1718T455 1760T447 1812Q448 1847 460 1876T494 1927T543 1960T602 1972Q634 1972 659 1962T701 1935T726 1894T734 1843Q733 1808 722 1778T689 1726T638 1692T571 1679ZM255 96L410 126L572 1400L433
1425L444 1530H1467L1445 1190H1281L1240 1396L850 1416L778 868L1219 883L1201 696L762 717L682 126L1192 156L1310 408L1468 385L1389 0H243L255 96Z" />
<glyph unicode="&#xcc;" glyph-name="Igrave" horiz-adv-x="745" d="M17 96L166 126L329 1400L189 1425L201 1530H778L767 1425L604 1400L441 126L607 97L600 0H6L17 96ZM538 1592Q502 1605 451 1631T350 1692T256 1766T194 1846L354 2007L624 1665L538 1592V1592Z" />
<glyph unicode="&#xcd;" glyph-name="Iacute" horiz-adv-x="745" d="M17 96L166 126L329 1400L189 1425L201 1530H778L767 1425L604 1400L441 126L607 97L600 0H6L17 96ZM448 1665L724 2007L879 1846Q859 1806 816 1767T722 1693T620 1632T532 1592L448 1665Z" />
<glyph unicode="&#xce;" glyph-name="Icircumflex" horiz-adv-x="745" d="M17 96L166 126L329 1400L189 1425L201 1530H778L767 1425L604 1400L441 126L607 97L600 0H6L17 96ZM180 1665L516 2007H694L905 1665L809 1606L588 1824L264 1607L180 1665Z" />
<glyph unicode="&#xcf;" glyph-name="Idieresis" horiz-adv-x="745" d="M17 96L166 126L329 1400L189 1425L201 1530H778L767 1425L604 1400L441 126L607 97L600 0H6L17 96ZM738 1679Q711 1679 688 1689T649 1717T623 1759T613 1812Q613 1847 626 1876T660 1927T710
1960T770 1972Q802 1972 827 1962T869 1935T894 1894T902 1843Q901 1808 889 1778T856 1726T805 1692T738 1679ZM303 1679Q276 1679 253 1689T213 1718T187 1760T179 1812Q180 1847 192 1876T226 1927T275 1960T334 1972Q366 1972 391 1962T433 1935T458 1894T466
1843Q465 1808 454 1778T421 1726T370 1692T303 1679Z" />
<glyph unicode="&#xd0;" glyph-name="Eth" horiz-adv-x="1467" d="M-2 98L151 128L226 712H84L105 862H246L316 1402L178 1427L189 1532H496Q571 1533 649 1540T807 1548Q974 1548 1090 1502T1280 1372T1387 1174T1422 924Q1424 721 1371 549T1212 250T949 54T584
-14Q566 -14 538 -12T490 -7Q472 -6 446 -4T390 -1T333 1T282 2H-13L-2 98ZM427 136Q445 130 470 125T522 116T574 110T620 108Q714 111 789 146T921 240T1018 374T1084 538T1121 717T1132 898Q1131 1041 1109 1141T1042 1305T928 1398T761 1427Q736 1427 710 1425T661
1420T619 1412T589 1404L519 862H864L843 712H500L427 136Z" />
<glyph unicode="&#xd1;" glyph-name="Ntilde" horiz-adv-x="1531" d="M598 1801Q614 1833 641 1863T701 1917T773 1955T850 1970Q886 1970 913 1960T962 1933T1002 1898T1038 1863T1075 1836T1118 1825Q1146 1825 1168 1834T1208 1859T1241 1893T1271 1930L1344
1819Q1331 1784 1306 1751T1247 1693T1174 1653T1093 1638Q1050 1638 1021 1648T969 1675T930 1709T895 1744T857 1771T807 1783Q787 1783 767 1776T728 1756T692 1728T660 1697L598 1801ZM9 96L151 125L329 1400L171 1425L187 1530H635L1059 477L1128 265L1264
1401L1108 1425L1120 1530H1596L1586 1425L1451 1400L1244 0H971L536 1062L469 1280L346 126L518 97L509 0H1L9 96Z" />
<glyph unicode="&#xd2;" glyph-name="Ograve" horiz-adv-x="1443" d="M869 1592Q833 1605 782 1631T681 1692T587 1766T525 1846L685 2007L955 1665L869 1592V1592ZM81 629Q80 753 102 870T169 1089T279 1276T429 1422T615 1516T836 1550Q977 1550 1080 1497T1250
1355T1351 1147T1386 898Q1387 776 1366 661T1303 444T1198 257T1051 110T865 14T639 -20Q503 -20 400 27T226 159T119 364T81 629ZM668 101Q768 101 848 160T983 323T1067 569T1095 873Q1094 1005 1076 1107T1022 1281T932 1389T805 1426Q740 1426 683 1398T577
1320T490 1201T426 1048T387 872T374 680Q375 561 389 456T436 272T525 147T668 101Z" />
<glyph unicode="&#xd3;" glyph-name="Oacute" horiz-adv-x="1443" d="M779 1665L1055 2007L1210 1846Q1190 1806 1147 1767T1053 1693T951 1632T863 1592L779 1665ZM81 629Q80 753 102 870T169 1089T279 1276T429 1422T615 1516T836 1550Q977 1550 1080 1497T1250
1355T1351 1147T1386 898Q1387 776 1366 661T1303 444T1198 257T1051 110T865 14T639 -20Q503 -20 400 27T226 159T119 364T81 629ZM668 101Q768 101 848 160T983 323T1067 569T1095 873Q1094 1005 1076 1107T1022 1281T932 1389T805 1426Q740 1426 683 1398T577
1320T490 1201T426 1048T387 872T374 680Q375 561 389 456T436 272T525 147T668 101Z" />
<glyph unicode="&#xd4;" glyph-name="Ocircumflex" horiz-adv-x="1443" d="M81 629Q80 753 102 870T169 1089T279 1276T429 1422T615 1516T836 1550Q977 1550 1080 1497T1250 1355T1351 1147T1386 898Q1387 776 1366 661T1303 444T1198 257T1051 110T865 14T639
-20Q503 -20 400 27T226 159T119 364T81 629ZM668 101Q768 101 848 160T983 323T1067 569T1095 873Q1094 1005 1076 1107T1022 1281T932 1389T805 1426Q740 1426 683 1398T577 1320T490 1201T426 1048T387 872T374 680Q375 561 389 456T436 272T525 147T668 101ZM511
1665L847 2007H1025L1236 1665L1140 1606L919 1824L595 1607L511 1665Z" />
<glyph unicode="&#xd5;" glyph-name="Otilde" horiz-adv-x="1443" d="M532 1801Q548 1833 575 1863T635 1917T707 1955T784 1970Q820 1970 847 1960T896 1933T936 1898T972 1863T1009 1836T1052 1825Q1080 1825 1102 1834T1142 1859T1175 1893T1205 1930L1278
1819Q1265 1784 1240 1751T1181 1693T1108 1653T1027 1638Q984 1638 955 1648T903 1675T864 1709T829 1744T791 1771T741 1783Q721 1783 701 1776T662 1756T626 1728T594 1697L532 1801ZM81 629Q80 753 102 870T169 1089T279 1276T429 1422T615 1516T836 1550Q977
1550 1080 1497T1250 1355T1351 1147T1386 898Q1387 776 1366 661T1303 444T1198 257T1051 110T865 14T639 -20Q503 -20 400 27T226 159T119 364T81 629ZM668 101Q768 101 848 160T983 323T1067 569T1095 873Q1094 1005 1076 1107T1022 1281T932 1389T805 1426Q740
1426 683 1398T577 1320T490 1201T426 1048T387 872T374 680Q375 561 389 456T436 272T525 147T668 101Z" />
<glyph unicode="&#xd6;" glyph-name="Odieresis" horiz-adv-x="1443" d="M1069 1679Q1042 1679 1019 1689T980 1717T954 1759T944 1812Q944 1847 957 1876T991 1927T1041 1960T1101 1972Q1133 1972 1158 1962T1200 1935T1225 1894T1233 1843Q1232 1808 1220 1778T1187
1726T1136 1692T1069 1679ZM634 1679Q607 1679 584 1689T544 1718T518 1760T510 1812Q511 1847 523 1876T557 1927T606 1960T665 1972Q697 1972 722 1962T764 1935T789 1894T797 1843Q796 1808 785 1778T752 1726T701 1692T634 1679ZM81 629Q80 753 102 870T169
1089T279 1276T429 1422T615 1516T836 1550Q977 1550 1080 1497T1250 1355T1351 1147T1386 898Q1387 776 1366 661T1303 444T1198 257T1051 110T865 14T639 -20Q503 -20 400 27T226 159T119 364T81 629ZM668 101Q768 101 848 160T983 323T1067 569T1095 873Q1094
1005 1076 1107T1022 1281T932 1389T805 1426Q740 1426 683 1398T577 1320T490 1201T426 1048T387 872T374 680Q375 561 389 456T436 272T525 147T668 101Z" />
<glyph unicode="&#xd7;" glyph-name="multiply" horiz-adv-x="1370" d="M217 439L600 766L299 1093L446 1230L727 880Q742 894 771 921T836 983T911 1055T987 1127T1052 1188T1096 1230L1211 1091L829 765L1130 438L982 300L701 650Q686 636 657 609T593 547T517
476T442 404T377 342T333 301L217 439Z" />
<glyph unicode="&#xd8;" glyph-name="Oslash" horiz-adv-x="1443" d="M237 147Q161 234 122 356T81 631Q80 755 102 872T169 1091T279 1278T429 1424T615 1518T836 1552Q922 1552 993 1532T1123 1475L1258 1670L1347 1621L1203 1411Q1295 1319 1339 1186T1386
900Q1387 778 1366 663T1303 446T1198 259T1051 112T865 16T639 -18Q540 -18 459 6T313 78L173 -127L84 -78L237 147ZM1002 1317Q967 1371 918 1399T805 1428Q740 1428 683 1400T577 1322T490 1203T426 1050T387 874T374 682Q375 594 381 515T405 367L1002 1317ZM448
247Q482 180 535 142T668 103Q768 103 848 162T983 325T1067 571T1095 875Q1093 1077 1052 1207L448 247Z" />
<glyph unicode="&#xd9;" glyph-name="Ugrave" horiz-adv-x="1413" d="M897 1592Q861 1605 810 1631T709 1692T615 1766T553 1846L713 2007L983 1665L897 1592V1592ZM137 428Q136 467 137 507T144 593L248 1401L109 1425L122 1530H715L705 1426L531 1400L430 617Q424
559 420 509T416 420Q417 344 434 284T484 183T566 119T680 97Q768 97 835 133T949 237T1027 403T1073 626L1177 1400L1026 1425L1037 1530H1495L1482 1425L1356 1401L1255 627Q1232 450 1182 327T1055 127T872 15T634 -20Q501 -20 407 13T253 105T166 247T137
428Z" />
<glyph unicode="&#xda;" glyph-name="Uacute" horiz-adv-x="1413" d="M807 1665L1083 2007L1238 1846Q1218 1806 1175 1767T1081 1693T979 1632T891 1592L807 1665ZM137 428Q136 467 137 507T144 593L248 1401L109 1425L122 1530H715L705 1426L531 1400L430 617Q424
559 420 509T416 420Q417 344 434 284T484 183T566 119T680 97Q768 97 835 133T949 237T1027 403T1073 626L1177 1400L1026 1425L1037 1530H1495L1482 1425L1356 1401L1255 627Q1232 450 1182 327T1055 127T872 15T634 -20Q501 -20 407 13T253 105T166 247T137
428Z" />
<glyph unicode="&#xdb;" glyph-name="Ucircumflex" horiz-adv-x="1413" d="M137 428Q136 467 137 507T144 593L248 1401L109 1425L122 1530H715L705 1426L531 1400L430 617Q424 559 420 509T416 420Q417 344 434 284T484 183T566 119T680 97Q768 97 835 133T949
237T1027 403T1073 626L1177 1400L1026 1425L1037 1530H1495L1482 1425L1356 1401L1255 627Q1232 450 1182 327T1055 127T872 15T634 -20Q501 -20 407 13T253 105T166 247T137 428ZM539 1665L875 2007H1053L1264 1665L1168 1606L947 1824L623 1607L539 1665Z" />
<glyph unicode="&#xdc;" glyph-name="Udieresis" horiz-adv-x="1413" d="M1097 1679Q1070 1679 1047 1689T1008 1717T982 1759T972 1812Q972 1847 985 1876T1019 1927T1069 1960T1129 1972Q1161 1972 1186 1962T1228 1935T1253 1894T1261 1843Q1260 1808 1248
1778T1215 1726T1164 1692T1097 1679ZM662 1679Q635 1679 612 1689T572 1718T546 1760T538 1812Q539 1847 551 1876T585 1927T634 1960T693 1972Q725 1972 750 1962T792 1935T817 1894T825 1843Q824 1808 813 1778T780 1726T729 1692T662 1679ZM137 428Q136 467
137 507T144 593L248 1401L109 1425L122 1530H715L705 1426L531 1400L430 617Q424 559 420 509T416 420Q417 344 434 284T484 183T566 119T680 97Q768 97 835 133T949 237T1027 403T1073 626L1177 1400L1026 1425L1037 1530H1495L1482 1425L1356 1401L1255 627Q1232
450 1182 327T1055 127T872 15T634 -20Q501 -20 407 13T253 105T166 247T137 428Z" />
<glyph unicode="&#xdd;" glyph-name="Yacute" horiz-adv-x="1227" d="M212 97L425 126L485 598L137 1400L30 1425L41 1530H627L613 1425L442 1400L642 873L687 749L749 860L1066 1400L920 1425L930 1530H1403L1390 1425L1277 1401L756 598L695 126L924 97L915
0H202L212 97ZM692 1665L968 2007L1123 1846Q1103 1806 1060 1767T966 1693T864 1632T776 1592L692 1665Z" />
<glyph unicode="&#xde;" glyph-name="Thorn" horiz-adv-x="1262" d="M14 96L157 126L318 1400L179 1425L192 1530H771L759 1425L593 1400L568 1200Q617 1205 668 1208T771 1211Q901 1211 989 1184T1133 1110T1212 997T1238 855Q1239 754 1204 662T1092 500T893
388T603 346Q546 346 514 347T460 350L432 126L606 97L598 0H4L14 96ZM476 475Q511 472 543 472T610 471Q696 471 764 494T880 562T951 672T974 820Q972 887 958 937T912 1021T829 1072T705 1089Q670 1089 629 1085T552 1074L476 475Z" />
<glyph unicode="&#xdf;" glyph-name="germandbls" horiz-adv-x="1194" d="M155 927Q175 1077 213 1184T301 1364T410 1481T533 1548T659 1578T781 1585Q854 1585 920 1566T1035 1510T1114 1417T1143 1288Q1143 1215 1122 1164T1070 1076T1002 1013T934 961T881
908T860 841Q860 823 867 804T888 762T923 711T972 646Q995 615 1021 581T1069 508T1105 423T1120 325Q1120 247 1087 184T995 77T858 8T689 -16Q595 -16 532 -1T434 31L460 218Q472 203 494 185T545 152T605 126T667 116Q702 116 734 120T792 141T832 191T847
282Q847 312 839 344T817 408T788 469T757 523Q736 549 715 582T676 652T647 724T635 793Q635 829 643 856T665 907T698 953T741 999Q802 1061 839 1131T877 1287Q877 1324 868 1356T839 1412T791 1450T723 1464Q667 1464 619 1432T531 1329T461 1144T412 867L304
0H40L155 927Z" />
<glyph unicode="&#xe0;" glyph-name="agrave" horiz-adv-x="1194" d="M72 407Q72 494 91 584T149 758T243 915T374 1044T539 1131T739 1163Q766 1163 795 1160T852 1151T908 1139T957 1124L1092 1163L962 207Q957 166 968 149T997 131Q1011 131 1031 140T1087
177L1117 114Q1110 103 1089 81T1035 36T959 -3T865 -20Q796 -20 755 13T717 115L715 118Q691 91 660 67T590 23T508 -8T413 -20Q324 -20 260 13T154 103T92 239T72 407ZM502 138Q533 138 562 147T617 172T667 208T710 251L812 1016Q768 1032 711 1032Q645 1032
593 1005T500 931T430 824T383 696T356 559T347 425Q347 289 388 214T502 138ZM714 1246Q693 1255 661 1274T592 1321T514 1380T438 1445T373 1510T328 1571L506 1743L794 1311L714 1246V1246Z" />
<glyph unicode="&#xe1;" glyph-name="aacute" horiz-adv-x="1194" d="M72 407Q72 494 91 584T149 758T243 915T374 1044T539 1131T739 1163Q766 1163 795 1160T852 1151T908 1139T957 1124L1092 1163L962 207Q957 166 968 149T997 131Q1011 131 1031 140T1087
177L1117 114Q1110 103 1089 81T1035 36T959 -3T865 -20Q796 -20 755 13T717 115L715 118Q691 91 660 67T590 23T508 -8T413 -20Q324 -20 260 13T154 103T92 239T72 407ZM502 138Q533 138 562 147T617 172T667 208T710 251L812 1016Q768 1032 711 1032Q645 1032
593 1005T500 931T430 824T383 696T356 559T347 425Q347 289 388 214T502 138ZM631 1312L948 1743L1115 1566Q1106 1549 1081 1522T1020 1462T943 1395T859 1331T778 1276T709 1241L631 1312Z" />
<glyph unicode="&#xe2;" glyph-name="acircumflex" horiz-adv-x="1194" d="M72 407Q72 494 91 584T149 758T243 915T374 1044T539 1131T739 1163Q766 1163 795 1160T852 1151T908 1139T957 1124L1092 1163L962 207Q957 166 968 149T997 131Q1011 131 1031 140T1087
177L1117 114Q1110 103 1089 81T1035 36T959 -3T865 -20Q796 -20 755 13T717 115L715 118Q691 91 660 67T590 23T508 -8T413 -20Q324 -20 260 13T154 103T92 239T72 407ZM502 138Q533 138 562 147T617 172T667 208T710 251L812 1016Q768 1032 711 1032Q645 1032
593 1005T500 931T430 824T383 696T356 559T347 425Q347 289 388 214T502 138ZM376 1286L723 1660H901L1101 1286L1002 1228L786 1462L458 1229L376 1286Z" />
<glyph unicode="&#xe3;" glyph-name="atilde" horiz-adv-x="1194" d="M72 407Q72 494 91 584T149 758T243 915T374 1044T539 1131T739 1163Q766 1163 795 1160T852 1151T908 1139T957 1124L1092 1163L962 207Q957 166 968 149T997 131Q1011 131 1031 140T1087
177L1117 114Q1110 103 1089 81T1035 36T959 -3T865 -20Q796 -20 755 13T717 115L715 118Q691 91 660 67T590 23T508 -8T413 -20Q324 -20 260 13T154 103T92 239T72 407ZM502 138Q533 138 562 147T617 172T667 208T710 251L812 1016Q768 1032 711 1032Q645 1032
593 1005T500 931T430 824T383 696T356 559T347 425Q347 289 388 214T502 138ZM382 1496Q398 1528 425 1558T485 1612T557 1650T634 1665Q670 1665 697 1655T746 1628T786 1593T822 1558T859 1531T902 1520Q930 1520 952 1529T992 1554T1025 1588T1055 1625L1128
1514Q1115 1479 1090 1446T1031 1388T958 1348T877 1333Q834 1333 805 1343T753 1370T714 1404T679 1439T641 1466T591 1478Q571 1478 551 1471T512 1451T476 1423T444 1392L382 1496Z" />
<glyph unicode="&#xe4;" glyph-name="adieresis" horiz-adv-x="1194" d="M72 407Q72 494 91 584T149 758T243 915T374 1044T539 1131T739 1163Q766 1163 795 1160T852 1151T908 1139T957 1124L1092 1163L962 207Q957 166 968 149T997 131Q1011 131 1031 140T1087
177L1117 114Q1110 103 1089 81T1035 36T959 -3T865 -20Q796 -20 755 13T717 115L715 118Q691 91 660 67T590 23T508 -8T413 -20Q324 -20 260 13T154 103T92 239T72 407ZM502 138Q533 138 562 147T617 172T667 208T710 251L812 1016Q768 1032 711 1032Q645 1032
593 1005T500 931T430 824T383 696T356 559T347 425Q347 289 388 214T502 138ZM964 1363Q937 1363 913 1375T872 1407T844 1453T835 1507Q836 1541 848 1572T882 1626T932 1662T996 1676Q1028 1676 1053 1665T1096 1634T1123 1590T1132 1538Q1131 1503 1119 1471T1086
1415T1034 1377T964 1363ZM528 1363Q501 1363 477 1375T436 1407T408 1453T399 1507Q400 1541 412 1572T446 1626T496 1662T560 1676Q592 1676 617 1665T660 1634T687 1590T696 1538Q695 1503 683 1471T650 1415T598 1377T528 1363Z" />
<glyph unicode="&#xe5;" glyph-name="aring" horiz-adv-x="1194" d="M72 407Q72 494 91 584T149 758T243 915T374 1044T539 1131T739 1163Q766 1163 795 1160T852 1151T908 1139T957 1124L1092 1163L962 207Q957 166 968 149T997 131Q1011 131 1031 140T1087 177L1117
114Q1110 103 1089 81T1035 36T959 -3T865 -20Q796 -20 755 13T717 115L715 118Q691 91 660 67T590 23T508 -8T413 -20Q324 -20 260 13T154 103T92 239T72 407ZM502 138Q533 138 562 147T617 172T667 208T710 251L812 1016Q768 1032 711 1032Q645 1032 593 1005T500
931T430 824T383 696T356 559T347 425Q347 289 388 214T502 138ZM752 1253Q678 1253 622 1271T529 1322T473 1404T459 1512Q463 1590 499 1644T588 1731T705 1780T825 1795Q893 1795 948 1778T1040 1729T1097 1650T1113 1544Q1109 1469 1076 1415T992 1324T879
1271T752 1253ZM770 1368Q804 1368 835 1375T890 1400T929 1449T947 1527Q949 1561 939 1589T909 1637T863 1669T805 1681Q772 1681 741 1673T685 1647T644 1598T626 1523Q624 1491 635 1463T666 1414T713 1381T770 1368Z" />
<glyph unicode="&#xe6;" glyph-name="ae" horiz-adv-x="1711" d="M373 -20Q287 -20 230 12T137 99T87 230T72 392Q72 479 93 570T155 746T256 908T394 1040T567 1130T774 1163Q825 1163 881 1153T982 1128L1083 1163L1069 1078Q1133 1119 1205 1141T1357 1163Q1436
1163 1493 1144T1587 1090T1642 1010T1661 911Q1662 831 1631 767T1548 653T1428 567T1290 507T1150 471T1026 458Q1024 387 1032 329T1062 228T1120 163T1212 139Q1312 139 1393 181T1541 290L1596 197Q1575 166 1535 128T1437 57T1306 2T1146 -20Q1066 -20 1004
-1T895 52T818 135T770 243Q743 198 704 152T615 67T505 5T373 -20ZM1029 573Q1063 575 1104 585T1186 614T1266 659T1334 721T1381 798T1398 891Q1396 965 1370 1000T1296 1036Q1252 1036 1216 1014T1152 956T1102 871T1066 772T1042 669T1029 573ZM457 151Q504
151 547 175T627 235T695 313T747 393V422L729 402L826 1024Q809 1029 792 1030T754 1032Q684 1032 627 1004T524 927T445 816T389 684T356 544T345 409Q345 353 351 306T370 224T405 170T457 151Z" />
<glyph unicode="&#xe7;" glyph-name="ccedilla" horiz-adv-x="924" d="M161 -304Q174 -311 193 -315T236 -319Q270 -319 300 -310T354 -280T393 -224T412 -137Q416 -66 410 -19Q252 -6 164 111T74 440Q73 521 90 606T141 771T226 922T346 1047T501 1132T691 1163Q720
1163 752 1160T815 1152T876 1139T929 1120L857 867Q836 880 808 904T750 952T690 993T632 1011Q580 1011 529 972T437 860T372 686T349 460Q350 376 363 316T400 218T459 162T539 144Q581 144 616 152T682 176T743 214T803 265L854 173Q838 151 811 124T746 71T660
24T555 -9Q568 -48 574 -104T577 -212Q568 -352 500 -413T294 -474Q274 -474 249 -472T199 -466T154 -457T126 -446L161 -304V-304Z" />
<glyph unicode="&#xe8;" glyph-name="egrave" horiz-adv-x="1050" d="M74 430Q75 530 97 623T158 798T254 947T378 1062T526 1136T693 1163Q772 1163 829 1144T924 1091T980 1012T1000 913Q1001 833 970 769T885 654T764 568T624 508T483 472T358 458Q355 395
365 338T400 236T463 165T559 139Q656 139 735 181T878 290L933 197Q912 166 873 128T777 57T649 2T493 -20Q380 -20 300 18T170 119T96 263T74 430ZM360 573Q395 575 436 585T520 614T602 659T671 721T720 798T737 891Q735 965 708 1000T633 1036Q588 1036 552
1014T486 956T436 871T399 772T374 669T360 573ZM646 1246Q625 1255 593 1274T524 1321T446 1380T370 1445T305 1510T260 1571L438 1743L726 1311L646 1246V1246Z" />
<glyph unicode="&#xe9;" glyph-name="eacute" horiz-adv-x="1050" d="M563 1312L880 1743L1047 1566Q1038 1549 1013 1522T952 1462T875 1395T791 1331T710 1276T641 1241L563 1312ZM74 430Q75 530 97 623T158 798T254 947T378 1062T526 1136T693 1163Q772 1163
829 1144T924 1091T980 1012T1000 913Q1001 833 970 769T885 654T764 568T624 508T483 472T358 458Q355 395 365 338T400 236T463 165T559 139Q656 139 735 181T878 290L933 197Q912 166 873 128T777 57T649 2T493 -20Q380 -20 300 18T170 119T96 263T74 430ZM360
573Q395 575 436 585T520 614T602 659T671 721T720 798T737 891Q735 965 708 1000T633 1036Q588 1036 552 1014T486 956T436 871T399 772T374 669T360 573Z" />
<glyph unicode="&#xea;" glyph-name="ecircumflex" horiz-adv-x="1050" d="M308 1286L655 1660H833L1033 1286L934 1228L718 1462L390 1229L308 1286ZM74 430Q75 530 97 623T158 798T254 947T378 1062T526 1136T693 1163Q772 1163 829 1144T924 1091T980 1012T1000
913Q1001 833 970 769T885 654T764 568T624 508T483 472T358 458Q355 395 365 338T400 236T463 165T559 139Q656 139 735 181T878 290L933 197Q912 166 873 128T777 57T649 2T493 -20Q380 -20 300 18T170 119T96 263T74 430ZM360 573Q395 575 436 585T520 614T602
659T671 721T720 798T737 891Q735 965 708 1000T633 1036Q588 1036 552 1014T486 956T436 871T399 772T374 669T360 573Z" />
<glyph unicode="&#xeb;" glyph-name="edieresis" horiz-adv-x="1050" d="M896 1363Q869 1363 845 1375T804 1407T776 1453T767 1507Q768 1541 780 1572T814 1626T864 1662T928 1676Q960 1676 985 1665T1028 1634T1055 1590T1064 1538Q1063 1503 1051 1471T1018
1415T966 1377T896 1363ZM460 1363Q433 1363 409 1375T368 1407T340 1453T331 1507Q332 1541 344 1572T378 1626T428 1662T492 1676Q524 1676 549 1665T592 1634T619 1590T628 1538Q627 1503 615 1471T582 1415T530 1377T460 1363ZM74 430Q75 530 97 623T158 798T254
947T378 1062T526 1136T693 1163Q772 1163 829 1144T924 1091T980 1012T1000 913Q1001 833 970 769T885 654T764 568T624 508T483 472T358 458Q355 395 365 338T400 236T463 165T559 139Q656 139 735 181T878 290L933 197Q912 166 873 128T777 57T649 2T493 -20Q380
-20 300 18T170 119T96 263T74 430ZM360 573Q395 575 436 585T520 614T602 659T671 721T720 798T737 891Q735 965 708 1000T633 1036Q588 1036 552 1014T486 956T436 871T399 772T374 669T360 573Z" />
<glyph unicode="&#xec;" glyph-name="igrave" horiz-adv-x="655" d="M136 121Q143 181 155 268T182 466T216 706T255 980L99 1031L117 1112L491 1163L543 1139L409 207Q398 131 438 131Q455 131 477 143T537 188L567 125Q559 114 537 90T480 42T399 -1T297 -20Q213
-20 171 16T136 121ZM654 1246Q633 1255 601 1274T532 1321T454 1380T378 1445T313 1510T268 1571L446 1743L734 1311L654 1246V1246Z" />
<glyph unicode="&#xed;" glyph-name="iacute" horiz-adv-x="655" d="M313 1312L630 1743L797 1566Q788 1549 763 1522T702 1462T625 1395T541 1331T460 1276T391 1241L313 1312ZM136 121Q143 181 155 268T182 466T216 706T255 980L99 1031L117 1112L491 1163L543
1139L409 207Q398 131 438 131Q455 131 477 143T537 188L567 125Q559 114 537 90T480 42T399 -1T297 -20Q213 -20 171 16T136 121Z" />
<glyph unicode="&#xee;" glyph-name="icircumflex" horiz-adv-x="655" d="M58 1286L405 1660H583L783 1286L684 1228L468 1462L140 1229L58 1286ZM136 121Q143 181 155 268T182 466T216 706T255 980L99 1031L117 1112L491 1163L543 1139L409 207Q398 131 438 131Q455
131 477 143T537 188L567 125Q559 114 537 90T480 42T399 -1T297 -20Q213 -20 171 16T136 121Z" />
<glyph unicode="&#xef;" glyph-name="idieresis" horiz-adv-x="655" d="M646 1363Q619 1363 595 1375T554 1407T526 1453T517 1507Q518 1541 530 1572T564 1626T614 1662T678 1676Q710 1676 735 1665T778 1634T805 1590T814 1538Q813 1503 801 1471T768 1415T716
1377T646 1363ZM210 1363Q183 1363 159 1375T118 1407T90 1453T81 1507Q82 1541 94 1572T128 1626T178 1662T242 1676Q274 1676 299 1665T342 1634T369 1590T378 1538Q377 1503 365 1471T332 1415T280 1377T210 1363ZM136 121Q143 181 155 268T182 466T216 706T255
980L99 1031L117 1112L491 1163L543 1139L409 207Q398 131 438 131Q455 131 477 143T537 188L567 125Q559 114 537 90T480 42T399 -1T297 -20Q213 -20 171 16T136 121Z" />
<glyph unicode="&#xf0;" glyph-name="eth" horiz-adv-x="1167" d="M65 443Q65 599 110 722T231 932T409 1064T623 1110Q692 1110 745 1095T833 1038Q825 1087 814 1133T784 1224T738 1311T672 1398L532 1238L421 1331L570 1493Q516 1538 458 1574T349 1625L398
1764Q427 1756 463 1742T537 1710T614 1669T690 1621Q714 1649 740 1680T789 1738Q815 1769 839 1800L947 1704L799 1536Q880 1462 938 1378T1033 1201T1087 1011T1104 812Q1104 636 1063 485T944 221T750 44T486 -20Q379 -20 300 21T168 129T91 278T65 443ZM515
98Q572 98 620 133T707 230T771 374T810 551Q812 563 815 586T821 636T826 687T829 728Q830 745 827 770T815 825T791 882T753 934T699 971T625 986Q575 986 534 961T461 891T406 789T368 667T346 535T339 406Q339 344 349 288T381 190T436 123T515 98Z" />
<glyph unicode="&#xf1;" glyph-name="ntilde" horiz-adv-x="1283" d="M239 963L137 1022L154 1111L462 1163L512 1139L494 931Q531 981 575 1023T669 1097T773 1145T885 1163Q940 1163 985 1148T1062 1097T1113 1003T1131 861Q1131 831 1126 788T1114 695T1097
597T1081 505Q1074 467 1067 427T1054 346T1043 268T1037 196Q1036 160 1044 146T1067 131Q1082 131 1101 140T1156 177L1185 114Q1178 104 1157 82T1102 37T1023 -3T923 -21Q874 -21 842 -10T792 22T766 70T760 131Q761 159 765 195T776 273T791 357T807 443Q814
485 823 535T840 637T853 741T858 838Q858 886 852 914T833 959T802 980T761 985Q728 985 690 967T613 916T537 839T470 745L368 0H109L239 963ZM371 1496Q387 1528 414 1558T474 1612T546 1650T623 1665Q659 1665 686 1655T735 1628T775 1593T811 1558T848 1531T891
1520Q919 1520 941 1529T981 1554T1014 1588T1044 1625L1117 1514Q1104 1479 1079 1446T1020 1388T947 1348T866 1333Q823 1333 794 1343T742 1370T703 1404T668 1439T630 1466T580 1478Q560 1478 540 1471T501 1451T465 1423T433 1392L371 1496Z" />
<glyph unicode="&#xf2;" glyph-name="ograve" horiz-adv-x="1170" d="M74 439Q71 581 112 711T232 942T422 1103T670 1163Q771 1163 848 1132T979 1042T1060 898T1091 703Q1093 609 1076 519T1022 348T933 200T813 84T666 8T494 -20Q393 -20 316 11T186 100T105
244T74 439ZM534 105Q585 105 625 131T697 203T749 308T784 434T803 570T807 705Q804 872 762 952T635 1033Q584 1033 543 1007T471 936T417 832T380 706T360 571T356 438Q360 270 401 188T534 105ZM648 1246Q627 1255 595 1274T526 1321T448 1380T372 1445T307
1510T262 1571L440 1743L728 1311L648 1246V1246Z" />
<glyph unicode="&#xf3;" glyph-name="oacute" horiz-adv-x="1170" d="M565 1312L882 1743L1049 1566Q1040 1549 1015 1522T954 1462T877 1395T793 1331T712 1276T643 1241L565 1312ZM74 439Q71 581 112 711T232 942T422 1103T670 1163Q771 1163 848 1132T979 1042T1060
898T1091 703Q1093 609 1076 519T1022 348T933 200T813 84T666 8T494 -20Q393 -20 316 11T186 100T105 244T74 439ZM534 105Q585 105 625 131T697 203T749 308T784 434T803 570T807 705Q804 872 762 952T635 1033Q584 1033 543 1007T471 936T417 832T380 706T360
571T356 438Q360 270 401 188T534 105Z" />
<glyph unicode="&#xf4;" glyph-name="ocircumflex" horiz-adv-x="1170" d="M310 1286L657 1660H835L1035 1286L936 1228L720 1462L392 1229L310 1286ZM74 439Q71 581 112 711T232 942T422 1103T670 1163Q771 1163 848 1132T979 1042T1060 898T1091 703Q1093 609
1076 519T1022 348T933 200T813 84T666 8T494 -20Q393 -20 316 11T186 100T105 244T74 439ZM534 105Q585 105 625 131T697 203T749 308T784 434T803 570T807 705Q804 872 762 952T635 1033Q584 1033 543 1007T471 936T417 832T380 706T360 571T356 438Q360 270
401 188T534 105Z" />
<glyph unicode="&#xf5;" glyph-name="otilde" horiz-adv-x="1170" d="M74 439Q71 581 112 711T232 942T422 1103T670 1163Q771 1163 848 1132T979 1042T1060 898T1091 703Q1093 609 1076 519T1022 348T933 200T813 84T666 8T494 -20Q393 -20 316 11T186 100T105
244T74 439ZM534 105Q585 105 625 131T697 203T749 308T784 434T803 570T807 705Q804 872 762 952T635 1033Q584 1033 543 1007T471 936T417 832T380 706T360 571T356 438Q360 270 401 188T534 105ZM316 1496Q332 1528 359 1558T419 1612T491 1650T568 1665Q604
1665 631 1655T680 1628T720 1593T756 1558T793 1531T836 1520Q864 1520 886 1529T926 1554T959 1588T989 1625L1062 1514Q1049 1479 1024 1446T965 1388T892 1348T811 1333Q768 1333 739 1343T687 1370T648 1404T613 1439T575 1466T525 1478Q505 1478 485 1471T446
1451T410 1423T378 1392L316 1496Z" />
<glyph unicode="&#xf6;" glyph-name="odieresis" horiz-adv-x="1170" d="M898 1363Q871 1363 847 1375T806 1407T778 1453T769 1507Q770 1541 782 1572T816 1626T866 1662T930 1676Q962 1676 987 1665T1030 1634T1057 1590T1066 1538Q1065 1503 1053 1471T1020
1415T968 1377T898 1363ZM462 1363Q435 1363 411 1375T370 1407T342 1453T333 1507Q334 1541 346 1572T380 1626T430 1662T494 1676Q526 1676 551 1665T594 1634T621 1590T630 1538Q629 1503 617 1471T584 1415T532 1377T462 1363ZM74 439Q71 581 112 711T232 942T422
1103T670 1163Q771 1163 848 1132T979 1042T1060 898T1091 703Q1093 609 1076 519T1022 348T933 200T813 84T666 8T494 -20Q393 -20 316 11T186 100T105 244T74 439ZM534 105Q585 105 625 131T697 203T749 308T784 434T803 570T807 705Q804 872 762 952T635 1033Q584
1033 543 1007T471 936T417 832T380 706T360 571T356 438Q360 270 401 188T534 105Z" />
<glyph unicode="&#xf7;" glyph-name="divide" horiz-adv-x="1370" d="M746 1031Q719 1031 695 1041T652 1070T624 1115T616 1174Q618 1213 635 1245T678 1299T736 1334T799 1347Q835 1347 861 1335T904 1304T928 1258T934 1204Q932 1162 915 1130T871 1076T811
1043T746 1031ZM277 862H1181L1163 685H259L277 862ZM512 344Q514 383 531 415T574 469T631 504T695 517Q731 517 757 505T799 474T823 428T829 374Q827 332 810 300T766 246T707 213T641 201Q614 201 590 211T547 240T520 285T512 344Z" />
<glyph unicode="&#xf8;" glyph-name="oslash" horiz-adv-x="1170" d="M189 99Q80 219 74 441Q71 583 112 713T232 944T422 1105T670 1165Q731 1165 783 1154T879 1120L1008 1303L1097 1254L962 1061Q1085 941 1091 705Q1093 611 1076 521T1022 350T933 202T813
86T666 10T494 -18Q359 -18 268 36L150 -132L61 -83L189 99ZM756 962Q714 1035 635 1035Q584 1035 543 1009T471 938T417 834T380 708T360 573T356 440Q357 384 362 338L756 962ZM395 203Q438 107 534 107Q585 107 625 133T697 205T749 310T784 436T803 572T807
707Q806 744 804 776T797 837L395 203Z" />
<glyph unicode="&#xf9;" glyph-name="ugrave" horiz-adv-x="1242" d="M137 245Q137 279 140 321T149 410T162 504T175 597L228 962L115 1032L132 1121L455 1163L505 1139L436 589Q425 499 414 422T402 284Q402 240 410 211T433 165T470 140T521 133Q553 133 584
142T645 167T700 203T747 247L869 1155H1128L1002 208Q992 132 1033 132Q1041 132 1049 134T1069 143T1096 161T1132 189L1161 126Q1154 114 1132 90T1075 42T995 0T898 -19Q811 -19 776 23T751 135Q725 106 692 79T616 29T523 -6T410 -20Q359 -20 310 -7T223 37T161
119T137 245ZM664 1246Q643 1255 611 1274T542 1321T464 1380T388 1445T323 1510T278 1571L456 1743L744 1311L664 1246V1246Z" />
<glyph unicode="&#xfa;" glyph-name="uacute" horiz-adv-x="1242" d="M581 1312L898 1743L1065 1566Q1056 1549 1031 1522T970 1462T893 1395T809 1331T728 1276T659 1241L581 1312ZM137 245Q137 279 140 321T149 410T162 504T175 597L228 962L115 1032L132 1121L455
1163L505 1139L436 589Q425 499 414 422T402 284Q402 240 410 211T433 165T470 140T521 133Q553 133 584 142T645 167T700 203T747 247L869 1155H1128L1002 208Q992 132 1033 132Q1041 132 1049 134T1069 143T1096 161T1132 189L1161 126Q1154 114 1132 90T1075
42T995 0T898 -19Q811 -19 776 23T751 135Q725 106 692 79T616 29T523 -6T410 -20Q359 -20 310 -7T223 37T161 119T137 245Z" />
<glyph unicode="&#xfb;" glyph-name="ucircumflex" horiz-adv-x="1242" d="M326 1286L673 1660H851L1051 1286L952 1228L736 1462L408 1229L326 1286ZM137 245Q137 279 140 321T149 410T162 504T175 597L228 962L115 1032L132 1121L455 1163L505 1139L436 589Q425
499 414 422T402 284Q402 240 410 211T433 165T470 140T521 133Q553 133 584 142T645 167T700 203T747 247L869 1155H1128L1002 208Q992 132 1033 132Q1041 132 1049 134T1069 143T1096 161T1132 189L1161 126Q1154 114 1132 90T1075 42T995 0T898 -19Q811 -19
776 23T751 135Q725 106 692 79T616 29T523 -6T410 -20Q359 -20 310 -7T223 37T161 119T137 245Z" />
<glyph unicode="&#xfc;" glyph-name="udieresis" horiz-adv-x="1242" d="M914 1363Q887 1363 863 1375T822 1407T794 1453T785 1507Q786 1541 798 1572T832 1626T882 1662T946 1676Q978 1676 1003 1665T1046 1634T1073 1590T1082 1538Q1081 1503 1069 1471T1036
1415T984 1377T914 1363ZM478 1363Q451 1363 427 1375T386 1407T358 1453T349 1507Q350 1541 362 1572T396 1626T446 1662T510 1676Q542 1676 567 1665T610 1634T637 1590T646 1538Q645 1503 633 1471T600 1415T548 1377T478 1363ZM137 245Q137 279 140 321T149
410T162 504T175 597L228 962L115 1032L132 1121L455 1163L505 1139L436 589Q425 499 414 422T402 284Q402 240 410 211T433 165T470 140T521 133Q553 133 584 142T645 167T700 203T747 247L869 1155H1128L1002 208Q992 132 1033 132Q1041 132 1049 134T1069 143T1096
161T1132 189L1161 126Q1154 114 1132 90T1075 42T995 0T898 -19Q811 -19 776 23T751 135Q725 106 692 79T616 29T523 -6T410 -20Q359 -20 310 -7T223 37T161 119T137 245Z" />
<glyph unicode="&#xfd;" glyph-name="yacute" horiz-adv-x="1078" d="M-74 -289Q-65 -295 -45 -306T5 -328T71 -347T147 -355Q186 -355 226 -341T307 -292T388 -201T469 -62H341L151 945Q143 976 135 988T110 1001Q98 1001 80 995T31 963L2 1033Q9 1043 30 1064T84
1108T158 1146T245 1163Q287 1163 316 1154T365 1126T394 1083T411 1026Q417 993 426 934T445 801T467 647T489 493T507 360T521 267L540 51L650 271Q684 346 711 413T759 545T793 677T812 818Q813 857 809 884T797 936T785 984T779 1040Q779 1097 813 1130T907
1163Q949 1163 977 1149T1024 1108T1049 1044T1057 960Q1057 883 1035 799T980 630T906 463T829 310Q756 165 703 64T610 -108T538 -227T477 -313Q452 -349 417 -384T336 -448T230 -494T98 -512Q68 -512 35 -508T-29 -499T-84 -487T-123 -476L-74 -289V-289ZM497
1312L814 1743L981 1566Q972 1549 947 1522T886 1462T809 1395T725 1331T644 1276T575 1241L497 1312Z" />
<glyph unicode="&#xfe;" glyph-name="thorn" horiz-adv-x="1178" d="M274 1483L175 1526L200 1611L496 1650L549 1623L471 1033Q495 1058 526 1081T593 1123T672 1152T762 1163Q849 1163 913 1133T1019 1046T1083 909T1104 730Q1104 639 1084 549T1025 375T929
219T799 94T637 11T444 -20Q417 -20 388 -17T331 -8L316 -141L262 -520H10L81 -20L274 1483ZM351 132Q377 120 407 115T473 110Q536 110 587 136T678 208T747 313T794 442T822 582T831 723Q831 785 821 837T792 926T743 983T675 1004Q640 1004 608 992T546 961T492
916T448 865L351 132Z" />
<glyph unicode="&#xff;" glyph-name="ydieresis" horiz-adv-x="1078" d="M-74 -289Q-65 -295 -45 -306T5 -328T71 -347T147 -355Q186 -355 226 -341T307 -292T388 -201T469 -62H341L151 945Q143 976 135 988T110 1001Q98 1001 80 995T31 963L2 1033Q9 1043 30
1064T84 1108T158 1146T245 1163Q287 1163 316 1154T365 1126T394 1083T411 1026Q417 993 426 934T445 801T467 647T489 493T507 360T521 267L540 51L650 271Q684 346 711 413T759 545T793 677T812 818Q813 857 809 884T797 936T785 984T779 1040Q779 1097 813
1130T907 1163Q949 1163 977 1149T1024 1108T1049 1044T1057 960Q1057 883 1035 799T980 630T906 463T829 310Q756 165 703 64T610 -108T538 -227T477 -313Q452 -349 417 -384T336 -448T230 -494T98 -512Q68 -512 35 -508T-29 -499T-84 -487T-123 -476L-74 -289V-289ZM830
1363Q803 1363 779 1375T738 1407T710 1453T701 1507Q702 1541 714 1572T748 1626T798 1662T862 1676Q894 1676 919 1665T962 1634T989 1590T998 1538Q997 1503 985 1471T952 1415T900 1377T830 1363ZM394 1363Q367 1363 343 1375T302 1407T274 1453T265 1507Q266
1541 278 1572T312 1626T362 1662T426 1676Q458 1676 483 1665T526 1634T553 1590T562 1538Q561 1503 549 1471T516 1415T464 1377T394 1363Z" />
<glyph unicode="&#x2013;" glyph-name="endash" horiz-adv-x="1543" d="M275 861H1372L1337 684H240L275 861Z" />
<glyph unicode="&#x2014;" glyph-name="emdash" horiz-adv-x="2034" d="M272 861H1863L1830 684H240L272 861Z" />
<glyph unicode="&#x2018;" glyph-name="quoteleft" horiz-adv-x="692" d="M385 927Q335 940 300 970T242 1039T210 1126T200 1220Q200 1322 236 1404T330 1551T458 1660T596 1734L649 1646L647 1624Q608 1611 571 1579T505 1502T459 1405T441 1300Q441 1268 448
1240T470 1190T503 1155T546 1138L541 1097L385 927V927Z" />
<glyph unicode="&#x2019;" glyph-name="quoteright" horiz-adv-x="692" d="M473 1730Q523 1717 558 1687T616 1618T648 1531T658 1437Q658 1335 622 1253T528 1106T400 997T262 923L209 1011L211 1033Q250 1046 287 1078T353 1155T399 1252T417 1357Q417 1389
410 1417T388 1467T355 1502T312 1519L317 1560L473 1730V1730Z" />
<glyph unicode="&#x201a;" glyph-name="quotesinglbase" horiz-adv-x="682" d="M303 291Q353 278 388 248T446 179T478 92T488 -2Q488 -104 452 -186T358 -333T230 -442T92 -516L39 -428L41 -406Q80 -393 117 -361T183 -284T229 -187T247 -82Q247 -50 240 -22T218
28T185 63T142 80L147 121L303 291V291Z" />
<glyph unicode="&#x201c;" glyph-name="quotedblleft" horiz-adv-x="1171" d="M875 927Q825 940 790 970T732 1039T700 1126T690 1220Q690 1322 726 1404T820 1551T948 1660T1086 1734L1139 1646L1137 1624Q1098 1611 1061 1579T995 1502T949 1405T931 1300Q931
1268 938 1240T960 1190T993 1155T1036 1138L1031 1097L875 927V927ZM386 927Q336 940 301 970T243 1039T211 1126T201 1220Q201 1322 237 1404T331 1551T459 1660T597 1734L650 1646L648 1624Q609 1611 572 1579T506 1502T460 1405T442 1300Q442 1268 449 1240T471
1190T504 1155T547 1138L542 1097L386 927V927Z" />
<glyph unicode="&#x201d;" glyph-name="quotedblright" horiz-adv-x="1171" d="M971 1730Q1021 1717 1056 1687T1114 1618T1146 1531T1156 1437Q1156 1335 1120 1253T1026 1106T898 997T760 923L707 1011L709 1033Q748 1046 785 1078T851 1155T897 1252T915 1357Q915
1389 908 1417T886 1467T853 1502T810 1519L815 1560L971 1730V1730ZM482 1730Q532 1717 567 1687T625 1618T657 1531T667 1437Q667 1335 631 1253T537 1106T409 997T271 923L218 1011L220 1033Q259 1046 296 1078T362 1155T408 1252T426 1357Q426 1389 419 1417T397
1467T364 1502T321 1519L326 1560L482 1730V1730Z" />
<glyph unicode="&#x201e;" glyph-name="quotedblbase" horiz-adv-x="1171" d="M294 291Q344 278 379 248T437 179T469 92T479 -2Q479 -104 443 -186T349 -333T221 -442T83 -516L30 -428L32 -406Q71 -393 108 -361T174 -284T220 -187T238 -82Q238 -50 231 -22T209
28T176 63T133 80L138 121L294 291V291ZM773 291Q823 278 858 248T916 179T948 92T958 -2Q958 -104 922 -186T828 -333T700 -442T562 -516L509 -428L511 -406Q550 -393 587 -361T653 -284T699 -187T717 -82Q717 -50 710 -22T688 28T655 63T612 80L617 121L773 291V291Z"
/>
<glyph unicode="&#x2022;" glyph-name="bullet" horiz-adv-x="858" d="M401 481Q359 481 322 497T258 541T214 605T198 683Q198 734 218 784T275 875T363 941T475 966Q517 966 554 951T618 909T662 846T678 768Q678 717 659 666T605 574T518 507T401 481Z" />
<glyph unicode="&#x2039;" glyph-name="guilsinglleft" horiz-adv-x="1190" d="M249 690L961 1091L1009 946L524 610L918 279L833 147L227 530L249 690Z" />
<glyph unicode="&#x203a;" glyph-name="guilsinglright" horiz-adv-x="1190" d="M872 548L160 147L112 292L597 628L203 959L288 1091L894 708L872 548Z" />
</font>
</defs>
</svg>
