<?xml version="1.0" encoding="UTF-8" standalone="no"?>
<svg width="80px" height="46px" viewBox="0 0 80 46" version="1.1" xmlns="https://www.w3.org/2000/svg" xmlns:xlink="https://www.w3.org/1999/xlink" xmlns:sketch="https://www.bohemiancoding.com/sketch/ns">
    <title>Slice 1</title>
    <description>Created with Sketch (https://www.bohemiancoding.com/sketch)</description>
    <defs></defs>
    <g id="Page 1" stroke="none" stroke-width="1" fill="none" fill-rule="evenodd">
        <g id="Slice 1" transform="translate(40.000000, 23.000000) rotate(-180.000000) translate(-40.000000, -23.000000) " fill="#D1D3D8">
            <g id="Page 1">
                <g id="Group">
                    <path d="M75.424,19 L33.082,19 L44.402,7.679 C45.964,6.117 45.964,3.584 44.402,2.022 C42.84,0.46 40.307,0.46 38.745,2.022 L20.597,20.171 C20.597,20.171 20.597,20.171 20.596,20.171 C20.41,20.357 20.244,20.563 20.098,20.782 C20.037,20.871 19.997,20.969 19.946,21.061 C19.871,21.196 19.79,21.327 19.73,21.471 C19.682,21.588 19.656,21.709 19.62,21.829 C19.579,21.958 19.53,22.084 19.504,22.219 C19.464,22.423 19.45,22.63 19.442,22.837 C19.44,22.892 19.425,22.943 19.425,22.999 C19.425,23.061 19.441,23.119 19.444,23.18 C19.453,23.38 19.465,23.58 19.505,23.778 C19.533,23.921 19.584,24.053 19.627,24.19 C19.662,24.302 19.686,24.416 19.731,24.525 C19.795,24.68 19.881,24.824 19.965,24.968 C20.011,25.049 20.045,25.135 20.098,25.214 C20.246,25.437 20.414,25.644 20.604,25.832 L38.749,43.976 C39.53,44.757 40.554,45.148 41.577,45.148 C42.6,45.148 43.624,44.757 44.405,43.976 C45.967,42.414 45.967,39.881 44.405,38.32 L33.082,27 L75.424,27 C77.633,27 79.424,25.209 79.424,23 C79.424,20.791 77.633,19 75.424,19 L75.424,19 L75.424,19 Z M75.424,19" id="Shape"></path>
                    <path d="M10.248,23 L25.568,7.68 C27.13,6.118 27.13,3.585 25.568,2.023 C24.006,0.461 21.474,0.461 19.912,2.023 L1.764,20.171 C0.202,21.733 0.202,24.266 1.764,25.828 L19.912,43.976 C20.693,44.757 21.717,45.148 22.74,45.148 C23.764,45.148 24.788,44.757 25.569,43.976 C27.131,42.414 27.131,39.881 25.569,38.32 L10.248,23 L10.248,23 Z M10.248,23" id="Shape"></path>
                </g>
            </g>
        </g>
    </g>
</svg>