<?xml version="1.0" encoding="UTF-8" standalone="no"?>
<svg width="18px" height="11px" viewBox="0 0 18 11" version="1.1" xmlns="https://www.w3.org/2000/svg" xmlns:xlink="https://www.w3.org/1999/xlink" xmlns:sketch="https://www.bohemiancoding.com/sketch/ns">
    <title>Slice 1</title>
    <description>Created with Sketch (https://www.bohemiancoding.com/sketch)</description>
    <defs></defs>
    <g id="Page 1" stroke="none" stroke-width="1" fill="none" fill-rule="evenodd" opacity="0.501917614">
        <g id="Group" transform="translate(8.500000, 6.000000) rotate(-180.000000) translate(-8.500000, -6.000000) translate(-1.000000, 0.000000)" fill="#8B8D92">
            <path d="M17.0666511,5.5069022 L7.18668644,5.5069022 L9.8280638,2.69566003 C10.1925365,2.30778261 10.1925365,1.67878548 9.8280638,1.29090806 C9.46359106,0.903030645 8.87254788,0.903030645 8.50807513,1.29090806 L4.27347122,5.7976861 C4.27347122,5.7976861 4.27347122,5.7976861 4.27323789,5.7976861 C4.22983716,5.84387381 4.19110319,5.89502794 4.15703595,5.94941024 C4.14280238,5.97151081 4.13346889,5.99584627 4.12156869,6.0186918 C4.1040684,6.05221514 4.08516809,6.08474519 4.07116785,6.12050341 C4.05996767,6.14955697 4.0539009,6.17960382 4.04550076,6.20940234 C4.03593393,6.24143575 4.02450041,6.27272419 4.01843364,6.30624753 C4.00910015,6.35690502 4.00583343,6.40830747 4.00396673,6.45970992 C4.00350006,6.47336757 4,6.48603194 4,6.49993792 C4,6.51533382 4.0037334,6.52973644 4.00443341,6.54488402 C4.00653344,6.59454823 4.00933349,6.64421243 4.01866698,6.69337999 C4.02520042,6.72888989 4.03710062,6.76166827 4.04713412,6.79568824 C4.05530092,6.8235002 4.06090102,6.85180879 4.07140119,6.87887578 C4.08633477,6.91736554 4.10640177,6.95312377 4.1260021,6.98888199 C4.13673561,7.00899599 4.14466908,7.0303516 4.15703595,7.04996896 C4.19156986,7.10534455 4.23077051,7.15674699 4.27510459,7.20343134 L8.50900848,11.7089678 C8.69124485,11.9029065 8.93018217,12 9.16888615,12 C9.40759013,12 9.64652744,11.9029065 9.82876381,11.7089678 C10.1932366,11.3210904 10.1932366,10.6920932 9.82876381,10.3044641 L7.18668644,7.49347029 L17.0666511,7.49347029 C17.582093,7.49347029 18,7.04872735 18,6.50018624 C18,5.95164513 17.582093,5.5069022 17.0666511,5.5069022 L17.0666511,5.5069022 Z M17.0666511,5.5069022" id="Shape"></path>
            <path d="M2.21558054,6.50006208 L5.73095457,2.69569831 C6.08937586,2.30781213 6.08937586,1.67880081 5.73095457,1.29091463 C5.37253327,0.903028456 4.79153281,0.903028456 4.43311152,1.29091463 L0.268815971,5.79754608 C-0.0896053235,6.18543226 -0.0896053235,6.81444358 0.268815971,7.20232976 L4.43311152,11.7089612 C4.61232217,11.9029043 4.84729234,12 5.08203304,12 C5.31700321,12 5.55197338,11.9029043 5.73118403,11.7089612 C6.08960532,11.321075 6.08960532,10.6920637 5.73118403,10.3044259 L2.21558054,6.50006208 L2.21558054,6.50006208 Z M2.21558054,6.50006208" id="Shape"></path>
        </g>
    </g>
</svg>