<?xml version="1.0" encoding="UTF-8" standalone="no"?>
<svg width="424px" height="41px" viewBox="0 0 424 41" version="1.1" xmlns="http://www.w3.org/2000/svg" xmlns:xlink="http://www.w3.org/1999/xlink" xmlns:sketch="http://www.bohemiancoding.com/sketch/ns">
    <title>Slice 1</title>
    <description>Created with Sketch (http://www.bohemiancoding.com/sketch)</description>
    <defs></defs>
    <g id="Page 1" stroke="none" stroke-width="1" fill="none" fill-rule="evenodd">
        <g id="Group" transform="translate(0.000000, 1.000000)">
            <g fill="#3070B8">
                <path d="M8.38633194,17.7782325 C8.38633194,9.95865705 11.8619247,6.41197281 18.2622036,6.41197281 C21.5718271,6.41197281 24.3863319,7.76817425 27.1450488,10.7402192 L32,5.73453108 C27.7517434,1.77268313 23.4490934,0 17.9316597,0 C6.45467225,0 0,7.09073252 0,17.7268313 C0,18.1604467 0.0237099024,18.5782464 0.0418410042,19 L4.0195258,17.9614317 L8.38633194,17.7782325 L8.38633194,17.7782325 Z M8.38633194,17.7782325" id="Shape"></path>
                <path d="M50.5,20.036193 L63,22 L63,8 L55.7148437,8 L55.7148437,18.3404826 L45.2851562,18.3404826 L45.2851562,8 L38,8 L38,20.4101877 L44.0965402,21.9463807 L50.5,20.036193 Z M50.5,20.036193" id="Shape"></path>
                <path d="M78,8 L71,8 L71,18.44012 L78,23 L78,8 Z M78,8" id="Shape"></path>
                <path d="M93,24.3220775 L93,8 L86,8 L86,25 L90.0692453,25 L93,24.3220775 Z M93,24.3220775" id="Shape"></path>
                <path d="M111,8 L111,25 L118,25 L118,8 L111,8 Z M111,8" id="Rectangle"></path>
                <path d="M143,8 L136,8 L136,23.5115774 L143,25 L143,8 Z M143,8" id="Shape"></path>
                <path d="M178,8 L171,8 L171.051553,22.9070205 L178,27 L178,8 Z M178,8" id="Shape"></path>
                <path d="M157.801549,25 L157.766538,18.9752372 L157.87157,18.9752372 L161.270325,23.7316289 L167,21.6363563 L167,21.6390899 L157.39219,8 L151,8 L151,25 L157.801549,25 Z M157.801549,25" id="Shape"></path>
                <path d="M191.710876,26.3566671 C191.462707,25.3059671 191.348793,24.1533234 191.348793,22.9476689 C191.348793,17.6778578 193.174125,13.9684654 198.484676,13.9684654 C200.738541,13.9684654 202.723895,14.559739 204.816382,16.818812 L209,12.4624167 C205.781937,9.45167867 202.883916,8 198.217521,8 C189.257662,8 184,14.2362376 184,22.7859182 C184,24.7350822 184.252238,26.4654071 184.70518,28 L187.733388,28 L191.710876,26.3566671 L191.710876,26.3566671 Z M191.710876,26.3566671" id="Shape"></path>
                <path d="M212,23.7256757 L212,21 L199,21 L199,25.9702703 L205.389045,25.9702703 C205.389045,26.7094595 205.268258,27.3783784 205.075843,28 L211.5,28 C211.797753,26.6905405 212,25.2945946 212,23.7256757" id="Shape"></path>
                <path d="M242.968498,26.8044931 L242.968498,21.7741368 L258.406856,21.7741368 L258.406856,15.1194652 L242.968498,15.1194652 L242.968498,7.60446298 L260,7.60446298 L260,1 L235,1 L235,26.4435342 L238.865493,28 L242.968498,26.8044931 Z M242.968498,26.8044931" id="Shape"></path>
                <path d="M274.133976,27 L274.133976,24.2276779 L285.755209,24.2276779 L285.755209,18.9410781 L274.133976,18.9410781 L274.133976,13.6015462 L287,13.6015462 L287,8 L267,8 L267,25.4186516 L270.962561,27 L274.133976,27 Z M274.133976,27" id="Shape"></path>
                <path d="M300.134463,28.9545781 L300.134463,24.1651486 L311.756491,24.1651486 L311.756491,18.8998082 L300.134463,18.8998082 L300.134463,13.5790988 L313,13.5790988 L313,8 L293,8 L293,26.9283317 L297.147308,30 L300.134463,28.9545781 Z M300.134463,28.9545781" id="Shape"></path>
                <path d="M326.020776,24.6458424 L337.82875,24.6458424 L337.82875,19.2411352 L326.020776,19.2411352 L326.020776,13.7817798 L339,13.7817798 L339,8 L319,8 L319,30 L326.020776,27.0845184 L326.020776,24.6458424 Z M326.020776,24.6458424" id="Shape"></path>
                <path d="M355.511286,29.1107721 C354.153912,27.5454119 353.538053,25.2729406 353.538053,22.6793006 C353.538053,16.5406595 356.324606,13.9254283 360.747464,13.9254283 C363.261989,13.9254283 365.446492,14.7256513 367.630995,17.234276 L372,12.964621 C368.558925,9.38723304 365.008763,8 360.527909,8 C350.91444,8 346,14.4598099 346,22.6793006 C346,24.4025464 346.207127,25.9921967 346.600669,27.4455527 L350.255776,31 L355.511286,29.1107721 L355.511286,29.1107721 Z M355.511286,29.1107721" id="Shape"></path>
                <path d="M389.030453,26.9586529 L389.030453,13.5804171 L397,13.5804171 L397,8 L374,8 L374,13.5804171 L381.915461,13.5804171 L381.915461,29.0956376 L385.5,30 L389.030453,26.9586529 Z M389.030453,26.9586529" id="Shape"></path>
                <path d="M414.738836,19.2986926 C412.384303,18.6617499 409.064953,18.0784445 409.064953,15.9034529 C409.064953,14.1535367 410.832206,13.516594 413.027064,13.516594 C416.184032,13.516594 418.271989,14.365404 420.682003,15.7975193 L423.197564,10.5464298 C420.305819,8.95474355 416.879567,8 413.186739,8 C406.654939,8 402,10.8119343 402,16.1153201 C402,21.1545424 406.281461,23.0640295 410.993234,24.3915521 C413.079838,24.9963124 416.68065,25.9054643 417.02977,28 L424,27.78411 C424,21.951056 419.289581,20.5175997 414.738836,19.2986926" id="Shape"></path>
            </g>
            <g transform="translate(0.000000, 21.000000)" id="Shape" fill="#50A6E0">
                <path d="M0,1.27798358 C0.428571429,11.9421079 6.04993065,19 18.0097087,19 C23.2760055,19 27.7198336,17.1409893 32,13.1579865 L27.6102635,7.81005303 C24.5381415,10.8642406 21.629681,12.3395802 18.0638003,12.3395802 C11.2052705,12.3395802 8.29819695,7.64581971 8.29819695,0 L3.9556172,0.191835549 L0,1.27798358 L0,1.27798358 Z M0,1.27798358"></path>
                <path d="M44.0951451,3.91978429 L38,2.37613751 L38,18 L45.2837612,18 L45.2837612,6.42736771 L55.7148437,6.42736771 L55.7148437,18 L63,18 L63,3.97505898 L50.4986049,2 L44.0951451,3.91978429 Z M44.0951451,3.91978429"></path>
                <path d="M71,18 L78,18 L78,4.56003639 L71,0 L71,18 Z M71,18"></path>
                <path d="M86,6.66838855 L86,18 L105,18 L105,12.4035935 L93.1518142,12.4035935 L93.1518142,6 L90.1567138,6.66838855 L86,6.66838855 Z M86,6.66838855"></path>
                <path d="M111,18 L130,18 L130,12.5680143 L118.153163,12.5680143 L118.153163,7 L111,7 L111,18 Z M111,18"></path>
                <path d="M136,18 L143,18 L143,6.48915561 L136,5 L136,18 Z M136,18"></path>
                <path d="M151,7 L151,18 L158,18 L157.927312,7 L151,7 Z M151,7"></path>
                <path d="M170.956721,6.86522539 L170.843667,6.86522539 L168.014485,3.00137994 L168.013072,3 L162,5.11545538 L171.570041,18 L178,18 L178,9.04553818 L170.949656,4.77736891 L170.956721,6.86522539 Z M170.956721,6.86522539"></path>
                <path d="M198.85571,13.5727477 C194.808066,13.5727477 192.774736,11.2558023 192.016822,8 L188.033016,9.65947093 L185,9.65947093 C186.875771,16.0722486 192.281684,19 198.426497,19 C205.509874,19 209.696061,15.678313 211,9.65947093 L204.788632,9.65947093 C204.078257,12.0862241 202.054435,13.5727477 198.85571,13.5727477"></path>
                <path d="M235,8 L235,18 L260,18 L260,11.7833944 L242.779616,11.7833944 L242.779616,8.34834992 L238.775222,9.50209534 L235,8 Z M235,8"></path>
                <path d="M267,8 L267,18 L274,18 L274,9.55497723 L270.888889,9.55497723 L267,8 Z M267,8"></path>
                <path d="M293,9 L293,18 L300,18 L300,11.1317614 L297.069144,12.2316227 L293,9 Z M293,9"></path>
                <path d="M346,9 C347.618803,15.2861939 352.473848,19 359.444529,19 C364.358266,19 367.759664,17.2850748 371,14.0202826 L367.329712,9.31752693 C365.059838,11.750035 362.632998,12.9683872 359.98504,12.9683872 C357.625082,12.9683872 355.954411,12.1095258 354.809238,10.7247167 L349.614326,12.6844314 L346,9 L346,9 Z M346,9"></path>
                <path d="M319,18 L340,18 L340,12.7724629 L326.199015,12.7724629 L326.199015,9 L319,11.7923815 L319,18 Z M319,18"></path>
                <path d="M382,11.2562635 L382,18 L389,18 L389,9 L385.526606,12.2111042 L382,11.2562635 Z M382,11.2562635"></path>
                <path d="M416.866263,9.53178758 C416.866263,11.7154824 415.095061,12.6201945 412.608108,12.6201945 C408.625349,12.6201945 405.916123,11.2913987 403.150979,9.42543007 L400,14.4336574 C403.813607,16.9875841 407.188257,18 412.273998,18 C418.301957,18 424,15.8701571 424,9 L416.799161,9.21540763 C416.815937,9.32176515 416.866263,9.41869858 416.866263,9.53178758"></path>
            </g>
        </g>
    </g>
</svg>