<?xml version="1.0" encoding="UTF-8" standalone="no"?>
<!--
  Do not change the URLs in the following to https; they won't work.
-->
<svg width="318px" height="60px" viewBox="0 0 318 60" version="1.1" xmlns="http://www.w3.org/2000/svg" xmlns:xlink="http://www.w3.org/1999/xlink" xmlns:sketch="http://www.bohemiancoding.com/sketch/ns">
    <title>Slice 4</title>
    <description>Created with Sketch (https://www.bohemiancoding.com/sketch)</description>
    <defs></defs>
    <g id="Page 1" stroke="none" stroke-width="1" fill="none" fill-rule="evenodd">
        <g id="Group" transform="translate(1.000000, 1.000000)">
            <path d="M27.9890433,32.7319438 C28.3198015,30.2748828 31.4383788,4.66474773 31.48563,3.95598015 C31.5801323,3.05820789 31.2966253,2.44394265 31.2966253,2.44394265 C31.2966253,2.44394265 31.8163882,1.45166805 33.3284257,1.45166805 C35.1712214,1.45166805 35.2657237,2.82195203 35.0767191,4.00323132 C34.9349655,5.51526882 34.1789468,10.4293907 33.8009374,13.4062145 L34.1316956,13.4062145 C35.2657237,11.6579211 38.1952964,8.53934381 43.4401765,8.53934381 C48.1180425,8.53934381 51.9453874,11.9414282 51.1893686,18.6038434 C51.0003639,20.0213785 49.2993218,32.0704274 49.2993218,33.1099531 C49.2520706,33.8659719 49.4883264,34.4329859 49.4883264,34.4329859 C49.4883264,34.4329859 48.9213124,35.4725117 47.4565261,35.4725117 C45.6609815,35.4725117 45.5664792,34.3857348 45.6137304,33.2989578 C45.7082327,32.0704274 47.3620237,20.4466391 47.5037772,18.5565922 C47.8817866,14.4929915 46.3224979,11.6579211 42.4006507,11.6579211 C37.0612683,11.6579211 33.9899421,16.572043 33.3284257,17.942327 C32.6196581,23.6597188 31.7218859,30.5583899 31.5801323,32.6374414 C31.48563,33.6769672 31.6746347,35 30.0680948,35 L28.9813179,35 C27.7527874,35 27.8472898,33.7242184 27.9890433,32.7319438 Z M13.1676261,35.4725117 C4.00089881,35.4725117 0.031800386,28.5265895 0.693316791,19.6906203 C1.30758202,9.67337193 7.26122967,2.39669148 17.2312269,2.39669148 C21.7673394,2.39669148 24.2244003,3.81422663 25.1694238,4.57024538 C25.8781913,5.13725944 26.3507031,6.03503171 25.0276703,7.49981803 C24.5551585,8.01958092 24.1771492,8.20858561 24.1771492,8.20858561 C24.1771492,8.20858561 21.8618417,5.7042735 16.8532175,5.7042735 C9.29303005,5.7042735 5.08767577,11.894177 4.37890819,19.6906203 C3.71739178,26.8255473 7.07222498,32.1649297 13.5456355,32.1649297 C16.5224593,32.1649297 18.5542597,31.1726551 19.8300414,30.4166363 C20.3970554,30.038627 20.9168183,29.8023711 21.3420789,30.6528922 L21.8618417,31.8341715 C22.1453488,32.3066832 22.1925999,32.7791949 21.5310835,33.2517066 C20.5860601,33.913223 17.7509898,35.4725117 13.1676261,35.4725117 Z M61.4746733,5.23176179 C60.1043893,5.23176179 59.2538682,4.99550593 59.4428729,2.77470085 C59.6791288,0.553895782 60.6714034,0.223137579 61.8999338,0.223137579 C63.1757155,0.223137579 64.2152412,0.50664461 63.9789854,2.77470085 C63.7427295,4.99550593 62.7032037,5.23176179 61.4746733,5.23176179 Z M56.2770444,33.062702 C56.5133002,31.1254039 58.7813565,13.1227075 58.92311,11.6579211 C59.0176124,10.6656465 58.7341053,9.90962779 58.7341053,9.90962779 C58.7341053,9.90962779 59.1593659,9.01185553 60.7186545,9.01185553 C62.0889385,9.01185553 62.7504549,9.67337193 62.5141991,11.3271629 C62.3251944,12.8392004 59.9153846,32.3066832 59.9153846,33.0154508 C59.8681334,33.8187207 60.1516405,34.5274883 60.1516405,34.5274883 C60.1516405,34.5274883 59.6791288,35.4725117 58.0253377,35.4725117 C56.4660491,35.4725117 56.1352909,34.3857348 56.2770444,33.062702 Z M67.6018748,30.7473945 C68.1216377,27.014552 70.8622057,7.45256686 71.0984615,3.95598015 C71.0984615,3.15271023 71.0512104,2.72744968 70.9094569,2.44394265 C71.0984615,2.11318445 71.8072291,1.45166805 72.8467549,1.45166805 C74.7840529,1.45166805 74.8313041,2.77470085 74.6422994,3.95598015 C74.0752854,8.25583678 71.8544803,23.3762117 71.0512104,30.605641 C70.8622057,32.6374414 71.3347174,32.4011856 73.1775131,32.259432 C73.8862807,32.1649297 74.5005459,32.4484367 74.5005459,33.3934602 C74.4532947,34.3384836 74.0752854,34.9527488 74.0752854,34.9527488 C73.1302619,34.9527488 71.7127268,35.4725117 70.389694,35.4725117 C68.0743865,35.4725117 67.1766143,33.8187207 67.6018748,30.7473945 Z M80.1079846,30.7473945 C80.6277474,27.014552 83.3683154,7.45256686 83.6045713,3.95598015 C83.6045713,3.15271023 83.5573201,2.72744968 83.4155666,2.44394265 C83.6045713,2.11318445 84.3133388,1.45166805 85.3528646,1.45166805 C87.2901627,1.45166805 87.3374138,2.77470085 87.1484092,3.95598015 C86.5813951,8.25583678 84.36059,23.3762117 83.5573201,30.605641 C83.3683154,32.6374414 83.8408271,32.4011856 85.6836228,32.259432 C86.3923904,32.1649297 87.0066556,32.4484367 87.0066556,33.3934602 C86.9594045,34.3384836 86.5813951,34.9527488 86.5813951,34.9527488 C85.6363717,34.9527488 84.2188365,35.4725117 82.8958037,35.4725117 C80.5804963,35.4725117 79.682724,33.8187207 80.1079846,30.7473945 Z M97.6699697,5.23176179 C96.2996857,5.23176179 95.4491646,4.99550593 95.6381693,2.77470085 C95.8744251,0.553895782 96.8666998,0.223137579 98.0952302,0.223137579 C99.3710119,0.223137579 100.410538,0.50664461 100.174282,2.77470085 C99.9380259,4.99550593 98.8985001,5.23176179 97.6699697,5.23176179 Z M92.4723408,33.062702 C92.7085966,31.1254039 94.9766529,13.1227075 95.1184064,11.6579211 C95.2129087,10.6656465 94.9294017,9.90962779 94.9294017,9.90962779 C94.9294017,9.90962779 95.3546623,9.01185553 96.9139509,9.01185553 C98.2842349,9.01185553 98.9457513,9.67337193 98.7094955,11.3271629 C98.5204908,12.8392004 96.110681,32.3066832 96.110681,33.0154508 C96.0634298,33.8187207 96.3469369,34.5274883 96.3469369,34.5274883 C96.3469369,34.5274883 95.8744251,35.4725117 94.2206341,35.4725117 C92.6613455,35.4725117 92.3305873,34.3857348 92.4723408,33.062702 Z M103.797171,32.7319438 C104.931199,23.5652164 106.206981,13.7842239 106.490488,11.1381583 C106.58499,10.240386 106.254232,9.43711607 106.254232,9.43711607 C106.254232,9.43711607 106.821246,8.53934381 108.286033,8.53934381 C110.128828,8.53934381 110.223331,9.86237662 110.034326,11.0909071 L109.656317,13.3589633 L109.892572,13.3589633 C111.0266,11.6579211 113.956173,8.53934381 119.201053,8.53934381 C123.878919,8.53934381 127.706264,11.9414282 126.950245,18.5565922 C126.808492,19.9741274 125.10745,32.1649297 125.060199,33.062702 C125.012947,33.913223 125.296454,34.4329859 125.296454,34.4329859 C125.296454,34.4329859 124.776691,35.4725117 123.217403,35.4725117 C121.516361,35.4725117 121.327356,34.3384836 121.421858,33.2044555 C121.469109,31.975925 123.1229,20.682895 123.264654,18.5565922 C123.642663,14.4457403 122.083375,11.6579211 118.161527,11.6579211 C112.916647,11.6579211 109.892572,16.3830383 109.136554,17.8478246 C108.711293,20.8246485 107.908023,27.298059 107.530014,30.7001434 C107.293758,32.5901902 107.624516,35 105.876223,35 L104.789446,35 C103.466413,35 103.655418,33.7242184 103.797171,32.7319438 Z M132.557684,36.7482934 C132.557684,36.7482934 135.109247,39.4888613 139.64536,39.4888613 C146.071519,39.4888613 147.914315,34.2439813 148.670334,28.4320871 L148.339575,28.4320871 C148.339575,28.4320871 145.362752,32.7791949 139.881616,32.7791949 C134.731238,32.7791949 130.667637,28.5265895 131.092898,21.3444114 C131.470907,14.6819961 135.62901,8.53934381 142.622184,8.53934381 C147.111045,8.53934381 149.426352,11.6579211 150.087869,13.3589633 L150.371376,13.3589633 L150.702134,10.240386 C150.796636,9.48436725 151.269148,9.01185553 152.072418,9.01185553 L153.017441,9.01185553 C153.820711,9.01185553 154.293223,9.3898649 154.104218,10.6183954 C154.009716,11.4216653 152.261423,25.7860215 151.836162,28.8100965 C150.654883,37.6460656 147.772561,42.5601875 139.314602,42.5601875 C134.40048,42.5601875 131.329154,40.5756383 131.281902,38.9690984 C131.1874,38.024075 131.754414,37.0790516 132.557684,36.7482934 Z M140.732137,29.6606176 C145.410003,29.6606176 148.623082,25.4080121 149.190096,21.7696719 L149.520855,18.6510946 C149.379101,16.85555 148.056068,11.6579211 142.763937,11.6579211 C137.991569,11.6579211 134.920243,16.3830383 134.683987,21.3444114 C134.353229,27.298059 137.566308,29.6606176 140.732137,29.6606176 Z M140.732137,29.6606176" id="Chilling" fill="#1C7ED6"></path>
            <path d="M209.3534,38.7328426 C209.542404,37.5988144 212.046716,18.4148387 212.330223,15.5797684 L209.684158,15.5797684 C209.164395,15.5797684 208.880888,15.2962614 208.928139,14.7292473 L209.164395,12.5084422 C209.258897,11.8469258 209.636907,11.5634188 210.109418,11.3744141 L212.897237,10.7601489 L213.180744,8.77559967 C213.842261,4.47574304 215.259796,1.45166805 221.118941,1.45166805 C223.386998,1.45166805 225.5133,1.92417976 226.174817,2.06593328 C226.174817,2.06593328 226.552826,6.27128757 223.812258,6.27128757 C223.197993,6.27128757 222.300221,6.22403639 221.733207,6.22403639 C220.126667,6.22403639 219.276146,7.16905983 218.992639,9.10635787 L218.803634,10.7128977 L222.914486,10.7128977 C223.528751,10.7128977 223.765007,10.9964047 223.717756,11.5634188 L223.197993,14.7764985 C223.150742,15.3435125 222.961737,15.6270196 222.394723,15.6270196 L218.283871,15.6270196 C217.85861,18.8400993 215.637805,37.3153074 215.448801,38.7328426 C215.307047,40.3393824 215.590554,42.0876758 213.227996,42.0876758 L210.959939,42.0876758 C208.880888,42.0876758 209.117144,40.2448801 209.3534,38.7328426 Z M166.890047,23.3762117 C167.315307,14.5874938 172.65469,8.53934381 179.884119,8.53934381 C186.35753,8.53934381 188.956344,12.177684 188.861842,16.1940336 C188.720088,21.7224207 183.475208,24.5102399 178.183077,24.5102399 C174.355732,24.5102399 172.701941,23.0927047 172.701941,23.0927047 L172.512936,23.2344582 C172.27668,26.7782961 173.977723,30.5111387 179.080849,30.5111387 C182.955445,30.5111387 185.932269,28.1958313 185.932269,28.1958313 C186.735539,29.0463524 187.113548,29.8968734 187.066297,31.0309016 C186.924544,33.2044555 183.616962,35.4725117 178.32483,35.4725117 C169.914122,35.4725117 166.653791,29.3771106 166.890047,23.3762117 Z M225.789082,23.3762117 C226.214342,14.5874938 231.553725,8.53934381 238.783154,8.53934381 C245.256565,8.53934381 247.855379,12.177684 247.760877,16.1940336 C247.619123,21.7224207 242.374243,24.5102399 237.082112,24.5102399 C233.254767,24.5102399 231.600976,23.0927047 231.600976,23.0927047 L231.411971,23.2344582 C231.175715,26.7782961 232.876758,30.5111387 237.979884,30.5111387 C241.85448,30.5111387 244.831304,28.1958313 244.831304,28.1958313 C245.634574,29.0463524 246.012583,29.8968734 245.965332,31.0309016 C245.823579,33.2044555 242.515997,35.4725117 237.223865,35.4725117 C228.813157,35.4725117 225.552826,29.3771106 225.789082,23.3762117 Z M192.445205,38.7328426 C192.63421,37.5988144 195.138522,18.4148387 195.422029,15.5797684 L192.775964,15.5797684 C192.256201,15.5797684 191.972694,15.2962614 192.019945,14.7292473 L192.256201,12.5084422 C192.350703,11.8469258 192.728712,11.5634188 193.201224,11.3744141 L195.989043,10.7601489 L196.27255,8.77559967 C196.934067,4.47574304 198.351602,1.45166805 204.210747,1.45166805 C206.478803,1.45166805 208.605106,1.92417976 209.266623,2.06593328 C209.266623,2.06593328 209.644632,6.27128757 206.904064,6.27128757 C206.289799,6.27128757 205.392026,6.22403639 204.825012,6.22403639 C203.218473,6.22403639 202.367951,7.16905983 202.084444,9.10635787 L201.89544,10.7128977 L206.006292,10.7128977 C206.620557,10.7128977 206.856813,10.9964047 206.809562,11.5634188 L206.289799,14.7764985 C206.242548,15.3435125 206.053543,15.6270196 205.486529,15.6270196 L201.375677,15.6270196 C200.950416,18.8400993 198.729611,37.3153074 198.540607,38.7328426 C198.398853,40.3393824 198.68236,42.0876758 196.319801,42.0876758 L194.051745,42.0876758 C191.972694,42.0876758 192.20895,40.2448801 192.445205,38.7328426 Z M231.884483,19.9268762 C232.073488,20.0686297 233.538274,20.682895 236.137089,20.682895 C239.255666,20.682895 242.043485,19.5488668 242.090736,16.572043 C242.090736,14.7292473 240.720452,13.4062145 238.499647,13.4062145 C234.861307,13.4062145 232.687753,16.2412848 232.073488,18.8400993 C231.978985,19.312611 231.884483,19.9268762 231.884483,19.9268762 Z M172.985448,19.9268762 C173.174453,20.0686297 174.639239,20.682895 177.238053,20.682895 C180.356631,20.682895 183.14445,19.5488668 183.191701,16.572043 C183.191701,14.7292473 181.821417,13.4062145 179.600612,13.4062145 C175.962272,13.4062145 173.788718,16.2412848 173.174453,18.8400993 C173.07995,19.312611 172.985448,19.9268762 172.985448,19.9268762 Z M250.777226,23.4234629 C251.060733,15.1545079 256.683623,8.53934381 264.196559,8.53934381 C269.394188,8.53934381 272.654519,11.4216653 272.087505,15.1545079 C271.662244,17.8005735 268.968927,18.2730852 267.362388,17.3753129 C267.362388,17.3753129 267.504141,17.1390571 267.504141,16.7610477 C267.551392,14.8237497 266.370113,13.6897215 264.007554,13.6897215 C259.660447,13.6897215 256.919879,18.1313317 256.730874,23.4234629 C256.58912,27.581566 258.809926,30.322134 262.495517,30.322134 C266.322862,30.322134 268.543667,28.5738406 269.110681,28.0540778 C269.441439,28.3375848 270.528216,29.3298594 270.480965,30.8418969 C270.433714,33.3934602 266.889876,35.4725117 261.739498,35.4725117 C253.565045,35.4725117 250.54097,29.9441246 250.777226,23.4234629 Z M277.230157,27.9595754 C277.608167,25.0772539 278.978451,15.4380149 279.120204,14.0204797 L276.615892,14.0204797 C275.765371,14.0204797 275.529115,13.7842239 275.623617,12.980954 L275.812622,10.7128977 C275.859873,10.3348883 276.14338,9.76787428 276.993901,9.62612076 C281.152004,9.3898649 281.719018,6.60204577 282.097028,4.99550593 C282.286033,4.28673835 282.664042,3.86147781 283.467312,3.86147781 L285.168354,3.86147781 C286.066126,3.86147781 286.585889,4.52299421 286.396884,5.65702233 C286.255131,6.79105045 286.018875,8.11408326 285.877122,9.01185553 C286.727643,9.0591067 290.082476,9.10635787 291.972523,9.01185553 C292.964797,8.96460436 293.295556,9.57886959 293.201053,10.1931348 L292.870295,12.9337028 C292.775793,13.5007168 292.586788,13.9259774 291.689016,13.9259774 C289.751718,13.8787262 285.40461,13.9259774 285.215605,13.9259774 C284.60134,17.7533223 283.892572,23.5652164 283.420061,27.298059 C283.136554,29.7551199 283.703568,30.2748828 285.357359,30.2748828 C286.585889,30.322134 287.719917,29.7078688 288.712192,29.7078688 C289.609964,29.7078688 290.318732,30.322134 290.271481,31.5506645 C290.271481,32.4956879 289.987974,34.1022277 289.987974,34.1022277 C288.145178,34.4329859 285.735368,35.4725117 282.947549,35.4725117 C278.458688,35.4725117 276.52139,33.0154508 277.230157,27.9595754 Z M294.421858,31.692418 C294.516361,30.038627 295.69764,28.7155942 295.981147,28.5738406 C295.981147,28.5738406 298.579961,30.605641 302.738065,30.605641 C305.336879,30.605641 308.030196,29.8496223 308.077447,27.4870637 C308.171949,25.9750262 306.707163,24.9827516 304.628111,24.273984 L301.462283,23.2344582 C297.682189,21.9586766 295.744891,19.8323739 295.839393,16.85555 C296.028398,11.7524235 299.855743,8.53934381 306.848916,8.53934381 C313.03882,8.53934381 314.881616,10.523893 314.976118,11.6579211 C315.023369,13.0282051 313.794839,14.6819961 313.133322,15.2962614 C313.133322,15.2962614 310.62901,13.4062145 306.612661,13.4062145 C305.006121,13.4062145 302.076548,13.7842239 301.982046,16.3830383 C301.934795,17.6115688 302.738065,18.5093411 304.58086,19.0763551 L308.030196,20.1631321 C312.046545,21.3916625 314.314602,23.5652164 314.220099,26.8255473 C314.031095,31.9286738 310.20375,35.4725117 302.360055,35.4725117 C295.886645,35.4725117 294.280105,33.346209 294.421858,31.692418 Z M294.421858,31.692418" id="effects" fill="#2370CB"></path>
            <path d="M85.985125,55 C85.408255,55 85.351975,54.53569 85.351975,54.14173 L85.351975,53.0302 C85.394185,51.13075 85.394185,46.95196 85.394185,45.92485 C85.394185,45.48868 85.197205,45.0103 86.224315,45.0103 C87.068515,45.0103 87.378055,45.33391 87.349915,46.02334 C87.307705,46.6987 87.293635,47.65546 87.279565,48.65443 L87.434335,48.65443 C87.532825,48.28861 88.194115,47.1208 89.840305,47.1208 C91.852315,47.1208 92.401045,48.73885 92.401045,50.25841 C92.386975,51.39808 92.288485,52.59403 92.316625,54.2965 C92.330695,54.74674 92.372905,55.1407 91.472425,55.1407 C90.557875,55.1407 90.332755,54.73267 90.332755,54.22615 C90.332755,52.94578 90.403105,51.65134 90.403105,50.27248 C90.403105,49.38607 90.009145,48.6685 89.150875,48.6685 C88.067485,48.6685 87.462475,49.78003 87.265495,50.20213 C87.251425,51.45436 87.265495,52.59403 87.279565,53.11462 C87.279565,53.52265 87.293635,53.84626 87.307705,53.98696 C87.349915,54.56383 87.335845,55 86.702695,55 Z M78.373255,48.44338 C78.387325,48.2464 78.359185,47.99314 78.359185,47.76802 C78.359185,47.65546 78.415465,47.48662 78.696865,47.44441 C79.850605,47.37406 80.033515,46.57207 80.075725,46.12183 C80.103865,45.88264 80.188285,45.74194 80.497825,45.74194 C80.849575,45.74194 81.482725,45.64345 81.440515,46.17811 C81.426445,46.51579 81.426445,46.95196 81.426445,47.2615 C81.735985,47.28964 82.706815,47.28964 83.255545,47.2615 C83.551015,47.24743 83.649505,47.38813 83.649505,47.55697 C83.649505,47.81023 83.635435,48.13384 83.635435,48.42931 C83.635435,48.59815 83.593225,48.72478 83.325895,48.72478 C82.734955,48.71071 81.468655,48.72478 81.398305,48.72478 C81.342025,49.86445 81.327955,51.63727 81.342025,52.7488 C81.342025,53.46637 81.539005,53.63521 82.045525,53.63521 C82.397275,53.63521 82.706815,53.52265 82.960075,53.46637 C83.241475,53.38195 83.396245,53.52265 83.424385,53.70556 L83.508805,54.24022 C83.536945,54.49348 83.494735,54.64825 83.269615,54.77488 C82.847515,55.01407 82.059595,55.1407 81.482725,55.1407 C79.991305,55.1407 79.400365,54.40906 79.414435,52.90357 C79.414435,52.0453 79.484785,49.17502 79.484785,48.75292 L78.739075,48.75292 C78.471745,48.75292 78.373255,48.68257 78.373255,48.44338 Z M95.805985,51.44029 L95.777845,51.4825 C95.791915,52.59403 96.425065,53.66335 97.832065,53.66335 C98.943595,53.66335 99.801865,53.07241 99.942565,52.98799 C99.942565,52.98799 100.223965,53.18497 100.336525,53.56486 C100.449085,54.00103 100.322455,54.32464 99.998845,54.53569 C99.731515,54.70453 98.887315,55.1407 97.719505,55.1407 C95.074345,55.1407 93.990955,53.38195 93.990955,51.08854 C93.990955,48.83734 95.299465,47.1208 97.606945,47.1208 C99.633025,47.1208 100.730485,48.45745 100.730485,49.97701 C100.730485,51.21517 100.378735,51.44029 99.858145,51.44029 Z M95.820055,50.37097 L98.943595,50.37097 C98.943595,50.37097 98.985805,50.18806 98.985805,49.97701 C98.985805,49.07653 98.535565,48.57001 97.564735,48.57001 C96.199945,48.57001 95.820055,49.70968 95.820055,50.37097 Z M112.605565,48.92176 C112.577425,49.75189 111.831715,50.06143 111.156355,49.75189 C111.156355,49.75189 111.184495,49.62526 111.184495,49.5127 C111.184495,49.14688 110.917165,48.65443 110.129245,48.65443 C108.919225,48.65443 108.243865,49.61119 108.243865,51.10261 C108.257935,52.65031 108.905155,53.60707 110.255875,53.60707 C111.367405,53.60707 112.127185,53.0302 112.127185,53.0302 C112.127185,53.0302 112.619635,53.28346 112.633705,53.90254 C112.647775,54.54976 111.705085,55.1407 110.115175,55.1407 C107.624785,55.1407 106.372555,53.63521 106.344415,51.11668 C106.330345,48.86548 107.751415,47.1208 110.030755,47.1208 C111.958345,47.1208 112.647775,48.03535 112.605565,48.92176 Z M115.897945,51.44029 L115.869805,51.4825 C115.883875,52.59403 116.517025,53.66335 117.924025,53.66335 C119.035555,53.66335 119.893825,53.07241 120.034525,52.98799 C120.034525,52.98799 120.315925,53.18497 120.428485,53.56486 C120.541045,54.00103 120.414415,54.32464 120.090805,54.53569 C119.823475,54.70453 118.979275,55.1407 117.811465,55.1407 C115.166305,55.1407 114.082915,53.38195 114.082915,51.08854 C114.082915,48.83734 115.391425,47.1208 117.698905,47.1208 C119.724985,47.1208 120.822445,48.45745 120.822445,49.97701 C120.822445,51.21517 120.470695,51.44029 119.950105,51.44029 Z M115.912015,50.37097 L119.035555,50.37097 C119.035555,50.37097 119.077765,50.18806 119.077765,49.97701 C119.077765,49.07653 118.627525,48.57001 117.656695,48.57001 C116.291905,48.57001 115.912015,49.70968 115.912015,50.37097 Z M128.617225,54.02917 C128.645365,54.59197 128.968975,55.1407 127.744885,55.1407 C127.055455,55.1407 126.788125,54.67639 126.900685,53.77591 L126.816265,53.77591 C126.816265,53.77591 126.140905,55.1407 124.508785,55.1407 C122.989225,55.1407 122.159095,54.09952 122.130955,52.81915 C122.102815,51.28552 123.256555,50.39911 124.930885,50.41318 C125.746945,50.42725 126.563005,50.65237 126.816265,50.75086 L126.816265,50.06143 C126.816265,49.16095 126.183115,48.73885 125.240425,48.73885 C124.100755,48.73885 123.143995,49.24537 123.143995,49.24537 C123.143995,49.24537 122.398285,48.31675 123.017365,47.71174 C123.397255,47.37406 124.255525,47.1208 125.465545,47.1208 C127.463485,47.1208 128.603155,48.26047 128.631295,49.96294 C128.645365,51.13075 128.589085,53.24125 128.617225,54.02917 Z M126.802195,51.70762 C126.633355,51.65134 126.070555,51.52471 125.437405,51.52471 C124.565065,51.52471 123.903775,51.93274 123.903775,52.66438 C123.903775,53.32567 124.382155,53.71963 125.071585,53.71963 C125.972065,53.71963 126.633355,53.05834 126.802195,52.53775 Z M135.610015,49.13281 C135.610015,49.13281 134.779885,48.57001 133.583935,48.57001 C133.105555,48.57001 132.303565,48.6685 132.303565,49.38607 C132.303565,49.7941 132.584965,50.01922 133.175905,50.18806 L134.259295,50.51167 C135.750715,50.94784 136.397935,51.56692 136.397935,52.69252 C136.397935,54.16987 135.201985,55.1407 133.077415,55.1407 C131.107615,55.1407 130.516675,54.5779 130.502605,54.08545 C130.474465,53.593 130.798075,53.12869 130.882495,53.08648 C130.882495,53.08648 131.740765,53.69149 133.007065,53.69149 C133.738705,53.69149 134.484415,53.48044 134.484415,52.80508 C134.484415,52.3267 134.006035,52.07344 133.316605,51.86239 L132.275425,51.53878 C130.868425,51.10261 130.390045,50.45539 130.390045,49.42828 C130.390045,48.00721 131.543785,47.1208 133.457305,47.1208 C135.455245,47.1208 135.989905,47.66953 136.032115,48.00721 C136.102465,48.40117 135.778855,48.99211 135.610015,49.13281 Z M139.676245,51.44029 L139.648105,51.4825 C139.662175,52.59403 140.295325,53.66335 141.702325,53.66335 C142.813855,53.66335 143.672125,53.07241 143.812825,52.98799 C143.812825,52.98799 144.094225,53.18497 144.206785,53.56486 C144.319345,54.00103 144.192715,54.32464 143.869105,54.53569 C143.601775,54.70453 142.757575,55.1407 141.589765,55.1407 C138.944605,55.1407 137.861215,53.38195 137.861215,51.08854 C137.861215,48.83734 139.169725,47.1208 141.477205,47.1208 C143.503285,47.1208 144.600745,48.45745 144.600745,49.97701 C144.600745,51.21517 144.248995,51.44029 143.728405,51.44029 Z M139.690315,50.37097 L142.813855,50.37097 C142.813855,50.37097 142.856065,50.18806 142.856065,49.97701 C142.856065,49.07653 142.405825,48.57001 141.434995,48.57001 C140.070205,48.57001 139.690315,49.70968 139.690315,50.37097 Z M157.840615,49.54084 L158.558185,49.80817 C158.867725,49.90666 158.924005,50.23027 158.825515,50.61016 C158.712955,51.03226 158.431555,51.82018 157.910965,52.62217 L159.135055,53.63521 C159.416455,53.86033 159.472735,54.12766 159.205405,54.42313 L158.811445,54.84523 C158.487835,55.22512 158.164225,55.12663 157.967245,54.95779 L156.813505,53.94475 C156.039655,54.64825 155.026615,55.16884 153.732175,55.16884 C151.509115,55.16884 150.285025,53.95882 150.285025,52.38298 C150.285025,50.30062 152.494015,50.04736 152.494015,50.04736 L152.494015,49.96294 C151.706095,49.38607 151.143295,48.65443 151.143295,47.81023 C151.143295,46.47358 152.128195,45.2917 154.126135,45.2917 C155.378365,45.2917 156.095935,45.74194 156.391405,45.92485 C156.715015,46.12183 157.165255,46.51579 156.644665,47.23336 C156.475825,47.45848 156.250705,47.59918 156.250705,47.59918 C156.250705,47.59918 155.350225,46.81126 154.224625,46.81126 C153.408565,46.81126 153.028675,47.30371 153.028675,47.8243 C153.028675,48.41524 153.310075,48.72478 153.830665,49.17502 L156.658735,51.56692 C156.996415,50.89156 157.179325,50.2162 157.249675,49.86445 C157.348165,49.5127 157.531075,49.42828 157.840615,49.54084 Z M153.802525,53.593 C154.562305,53.593 155.167315,53.3116 155.645695,52.91764 L153.225655,50.779 C152.719135,50.79307 152.128195,51.22924 152.128195,52.14379 C152.128195,53.08648 152.902045,53.593 153.802525,53.593 Z M168.252415,53.64928 C169.096615,53.64928 169.842325,52.8895 169.842325,51.55285 L169.842325,50.24434 C169.757905,49.96294 169.237315,48.6685 168.153925,48.6685 C167.380075,48.6685 166.648435,49.25944 166.648435,50.97598 C166.648435,52.69252 167.337865,53.64928 168.252415,53.64928 Z M170.602105,45.0103 C171.572935,45.0103 171.783985,45.53089 171.755845,46.06555 C171.727705,46.558 171.629215,52.11565 171.713635,54.02917 C171.713635,54.38092 171.910615,54.90151 171.502585,55.05628 C171.361885,55.09849 171.052345,55.1407 170.813155,55.1407 C170.053375,55.1407 169.884535,54.54976 169.968955,53.83219 L169.884535,53.83219 C169.884535,53.83219 169.392085,55.1407 167.661475,55.1407 C166.043425,55.1407 164.734915,53.66335 164.706775,50.93377 C164.692705,48.61222 165.888655,47.1208 167.520775,47.1208 C168.913705,47.1208 169.631275,48.21826 169.743835,48.68257 L169.842325,48.68257 C169.828255,47.62732 169.786045,46.40323 169.786045,46.00927 C169.757905,45.31984 169.771975,45.0103 170.602105,45.0103 Z M175.273345,51.44029 L175.245205,51.4825 C175.259275,52.59403 175.892425,53.66335 177.299425,53.66335 C178.410955,53.66335 179.269225,53.07241 179.409925,52.98799 C179.409925,52.98799 179.691325,53.18497 179.803885,53.56486 C179.916445,54.00103 179.789815,54.32464 179.466205,54.53569 C179.198875,54.70453 178.354675,55.1407 177.186865,55.1407 C174.541705,55.1407 173.458315,53.38195 173.458315,51.08854 C173.458315,48.83734 174.766825,47.1208 177.074305,47.1208 C179.100385,47.1208 180.197845,48.45745 180.197845,49.97701 C180.197845,51.21517 179.846095,51.44029 179.325505,51.44029 Z M175.287415,50.37097 L178.410955,50.37097 C178.410955,50.37097 178.453165,50.18806 178.453165,49.97701 C178.453165,49.07653 178.002925,48.57001 177.032095,48.57001 C175.667305,48.57001 175.287415,49.70968 175.287415,50.37097 Z M186.852955,49.13281 C186.852955,49.13281 186.022825,48.57001 184.826875,48.57001 C184.348495,48.57001 183.546505,48.6685 183.546505,49.38607 C183.546505,49.7941 183.827905,50.01922 184.418845,50.18806 L185.502235,50.51167 C186.993655,50.94784 187.640875,51.56692 187.640875,52.69252 C187.640875,54.16987 186.444925,55.1407 184.320355,55.1407 C182.350555,55.1407 181.759615,54.5779 181.745545,54.08545 C181.717405,53.593 182.041015,53.12869 182.125435,53.08648 C182.125435,53.08648 182.983705,53.69149 184.250005,53.69149 C184.981645,53.69149 185.727355,53.48044 185.727355,52.80508 C185.727355,52.3267 185.248975,52.07344 184.559545,51.86239 L183.518365,51.53878 C182.111365,51.10261 181.632985,50.45539 181.632985,49.42828 C181.632985,48.00721 182.786725,47.1208 184.700245,47.1208 C186.698185,47.1208 187.232845,47.66953 187.275055,48.00721 C187.345405,48.40117 187.021795,48.99211 186.852955,49.13281 Z M189.652885,45.47461 C189.624745,44.64448 190.074985,44.54599 190.637785,44.54599 C191.214655,44.54599 191.664895,44.64448 191.693035,45.47461 C191.707105,46.29067 191.256865,46.38916 190.708135,46.38916 C190.103125,46.38916 189.681025,46.29067 189.652885,45.47461 Z M190.286035,55 C189.709165,55 189.652885,54.53569 189.652885,54.14173 C189.652885,53.8744 189.666955,53.48044 189.666955,53.0302 C189.709165,51.13075 189.709165,49.20316 189.709165,48.17605 C189.709165,47.73988 189.498115,47.2615 190.525225,47.2615 C191.383495,47.2615 191.693035,47.44441 191.664895,48.13384 C191.594545,49.83631 191.552335,51.94681 191.580475,53.11462 C191.580475,53.52265 191.580475,53.84626 191.608615,53.98696 C191.664895,54.56383 191.636755,55 191.017675,55 Z M198.840595,49.13281 C198.840595,49.13281 198.010465,48.57001 196.814515,48.57001 C196.336135,48.57001 195.534145,48.6685 195.534145,49.38607 C195.534145,49.7941 195.815545,50.01922 196.406485,50.18806 L197.489875,50.51167 C198.981295,50.94784 199.628515,51.56692 199.628515,52.69252 C199.628515,54.16987 198.432565,55.1407 196.307995,55.1407 C194.338195,55.1407 193.747255,54.5779 193.733185,54.08545 C193.705045,53.593 194.028655,53.12869 194.113075,53.08648 C194.113075,53.08648 194.971345,53.69149 196.237645,53.69149 C196.969285,53.69149 197.714995,53.48044 197.714995,52.80508 C197.714995,52.3267 197.236615,52.07344 196.547185,51.86239 L195.506005,51.53878 C194.099005,51.10261 193.620625,50.45539 193.620625,49.42828 C193.620625,48.00721 194.774365,47.1208 196.687885,47.1208 C198.685825,47.1208 199.220485,47.66953 199.262695,48.00721 C199.333045,48.40117 199.009435,48.99211 198.840595,49.13281 Z M200.922955,48.44338 C200.937025,48.2464 200.908885,47.99314 200.908885,47.76802 C200.908885,47.65546 200.965165,47.48662 201.246565,47.44441 C202.400305,47.37406 202.583215,46.57207 202.625425,46.12183 C202.653565,45.88264 202.737985,45.74194 203.047525,45.74194 C203.399275,45.74194 204.032425,45.64345 203.990215,46.17811 C203.976145,46.51579 203.976145,46.95196 203.976145,47.2615 C204.285685,47.28964 205.256515,47.28964 205.805245,47.2615 C206.100715,47.24743 206.199205,47.38813 206.199205,47.55697 C206.199205,47.81023 206.185135,48.13384 206.185135,48.42931 C206.185135,48.59815 206.142925,48.72478 205.875595,48.72478 C205.284655,48.71071 204.018355,48.72478 203.948005,48.72478 C203.891725,49.86445 203.877655,51.63727 203.891725,52.7488 C203.891725,53.46637 204.088705,53.63521 204.595225,53.63521 C204.946975,53.63521 205.256515,53.52265 205.509775,53.46637 C205.791175,53.38195 205.945945,53.52265 205.974085,53.70556 L206.058505,54.24022 C206.086645,54.49348 206.044435,54.64825 205.819315,54.77488 C205.397215,55.01407 204.609295,55.1407 204.032425,55.1407 C202.541005,55.1407 201.950065,54.40906 201.964135,52.90357 C201.964135,52.0453 202.034485,49.17502 202.034485,48.75292 L201.288775,48.75292 C201.021445,48.75292 200.922955,48.68257 200.922955,48.44338 Z M217.989865,48.92176 C217.961725,49.75189 217.216015,50.06143 216.540655,49.75189 C216.540655,49.75189 216.568795,49.62526 216.568795,49.5127 C216.568795,49.14688 216.301465,48.65443 215.513545,48.65443 C214.303525,48.65443 213.628165,49.61119 213.628165,51.10261 C213.642235,52.65031 214.289455,53.60707 215.640175,53.60707 C216.751705,53.60707 217.511485,53.0302 217.511485,53.0302 C217.511485,53.0302 218.003935,53.28346 218.018005,53.90254 C218.032075,54.54976 217.089385,55.1407 215.499475,55.1407 C213.009085,55.1407 211.756855,53.63521 211.728715,51.11668 C211.714645,48.86548 213.135715,47.1208 215.415055,47.1208 C217.342645,47.1208 218.032075,48.03535 217.989865,48.92176 Z M221.296315,55.1407 C220.255135,55.1407 219.903385,54.47941 219.903385,53.33974 C219.903385,52.42519 220.015945,46.60021 219.973735,45.92485 C219.945595,45.24949 220.001875,45.0103 220.832005,45.0103 C221.816905,45.0103 221.943535,45.44647 221.929465,45.9952 C221.901325,46.92382 221.704345,51.67948 221.760625,53.22718 C221.774695,53.7337 221.957605,53.69149 222.478195,53.67742 C222.703315,53.66335 222.815875,53.77591 222.844015,53.95882 L222.872155,54.42313 C222.886225,54.67639 222.829945,54.80302 222.590755,54.90151 C222.281215,55.04221 221.718415,55.1407 221.296315,55.1407 Z M226.066045,51.44029 L226.037905,51.4825 C226.051975,52.59403 226.685125,53.66335 228.092125,53.66335 C229.203655,53.66335 230.061925,53.07241 230.202625,52.98799 C230.202625,52.98799 230.484025,53.18497 230.596585,53.56486 C230.709145,54.00103 230.582515,54.32464 230.258905,54.53569 C229.991575,54.70453 229.147375,55.1407 227.979565,55.1407 C225.334405,55.1407 224.251015,53.38195 224.251015,51.08854 C224.251015,48.83734 225.559525,47.1208 227.867005,47.1208 C229.893085,47.1208 230.990545,48.45745 230.990545,49.97701 C230.990545,51.21517 230.638795,51.44029 230.118205,51.44029 Z M226.080115,50.37097 L229.203655,50.37097 C229.203655,50.37097 229.245865,50.18806 229.245865,49.97701 C229.245865,49.07653 228.795625,48.57001 227.824795,48.57001 C226.460005,48.57001 226.080115,49.70968 226.080115,50.37097 Z M238.785325,54.02917 C238.813465,54.59197 239.137075,55.1407 237.912985,55.1407 C237.223555,55.1407 236.956225,54.67639 237.068785,53.77591 L236.984365,53.77591 C236.984365,53.77591 236.309005,55.1407 234.676885,55.1407 C233.157325,55.1407 232.327195,54.09952 232.299055,52.81915 C232.270915,51.28552 233.424655,50.39911 235.098985,50.41318 C235.915045,50.42725 236.731105,50.65237 236.984365,50.75086 L236.984365,50.06143 C236.984365,49.16095 236.351215,48.73885 235.408525,48.73885 C234.268855,48.73885 233.312095,49.24537 233.312095,49.24537 C233.312095,49.24537 232.566385,48.31675 233.185465,47.71174 C233.565355,47.37406 234.423625,47.1208 235.633645,47.1208 C237.631585,47.1208 238.771255,48.26047 238.799395,49.96294 C238.813465,51.13075 238.757185,53.24125 238.785325,54.02917 Z M236.970295,51.70762 C236.801455,51.65134 236.238655,51.52471 235.605505,51.52471 C234.733165,51.52471 234.071875,51.93274 234.071875,52.66438 C234.071875,53.32567 234.550255,53.71963 235.239685,53.71963 C236.140165,53.71963 236.801455,53.05834 236.970295,52.53775 Z M241.613395,47.1208 C242.485735,47.1208 242.640505,47.61325 242.626435,48.68257 L242.724925,48.68257 C242.992255,47.66953 243.864595,47.1208 244.680655,47.1208 C245.961025,47.1208 246.298705,47.92279 246.284635,48.97804 C246.270565,49.7941 245.918815,50.14585 245.144965,50.11771 C244.610305,50.10364 244.638445,49.9348 244.638445,49.44235 C244.638445,49.03432 244.525885,48.65443 244.033435,48.65443 C243.329935,48.65443 242.837485,49.80817 242.767135,50.45539 C242.724925,51.60913 242.710855,52.76287 242.781205,53.98696 C242.809345,54.4372 242.935975,55 242.162125,55 L241.472695,55 C240.938035,55 240.881755,54.5779 240.853615,54.21208 C240.811405,54.00103 240.825475,53.63521 240.825475,53.21311 C240.839545,51.79204 240.867685,49.68154 240.867685,48.71071 C240.853615,48.37303 240.853615,48.13384 240.853615,48.04942 C240.853615,47.5429 240.783265,47.1208 241.613395,47.1208 Z M247.874545,45.47461 C247.846405,44.64448 248.296645,44.54599 248.859445,44.54599 C249.436315,44.54599 249.886555,44.64448 249.914695,45.47461 C249.928765,46.29067 249.478525,46.38916 248.929795,46.38916 C248.324785,46.38916 247.902685,46.29067 247.874545,45.47461 Z M248.507695,55 C247.930825,55 247.874545,54.53569 247.874545,54.14173 C247.874545,53.8744 247.888615,53.48044 247.888615,53.0302 C247.930825,51.13075 247.930825,49.20316 247.930825,48.17605 C247.930825,47.73988 247.719775,47.2615 248.746885,47.2615 C249.605155,47.2615 249.914695,47.44441 249.886555,48.13384 C249.816205,49.83631 249.773995,51.94681 249.802135,53.11462 C249.802135,53.52265 249.802135,53.84626 249.830275,53.98696 C249.886555,54.56383 249.858415,55 249.239335,55 Z M258.244135,55.1407 C257.343655,55.1407 257.104465,54.73267 257.104465,54.22615 C257.104465,52.94578 257.217025,51.65134 257.217025,50.27248 C257.217025,49.38607 256.794925,48.6685 255.936655,48.6685 C254.881405,48.6685 254.290465,49.70968 254.079415,50.15992 C254.065345,51.14482 254.051275,52.3267 254.065345,53.11462 C254.065345,53.52265 254.065345,53.84626 254.079415,53.98696 C254.135695,54.56383 254.107555,55 253.488475,55 L252.756835,55 C252.179965,55 252.123685,54.53569 252.123685,54.14173 C252.123685,53.8744 252.137755,53.48044 252.137755,53.0302 C252.179965,51.13075 252.179965,48.68257 252.179965,48.03535 C252.179965,47.59918 251.912635,47.1208 252.996025,47.1208 C253.840225,47.1208 254.037205,47.62732 254.093485,48.09163 C254.121625,48.19012 254.121625,48.37303 254.121625,48.65443 L254.220115,48.65443 C254.318605,48.28861 254.951755,47.1208 256.569805,47.1208 C258.624025,47.1208 259.186825,48.73885 259.172755,50.25841 C259.172755,51.39808 259.060195,52.59403 259.088335,54.2965 C259.102405,54.74674 259.144615,55.1407 258.244135,55.1407 Z M267.389635,48.47152 C266.939395,48.48559 266.573575,48.44338 266.249965,48.3871 L266.235895,48.45745 C266.629855,48.61222 267.530335,48.93583 267.530335,50.08957 C267.544405,51.65134 266.067055,52.38298 264.083185,52.38298 C263.464105,52.38298 263.196775,52.55182 263.196775,52.83322 C263.196775,53.12869 263.450035,53.26939 263.998765,53.26939 C264.209815,53.26939 265.307275,53.22718 265.673095,53.22718 C267.192655,53.22718 268.135345,53.80405 268.135345,54.92965 C268.135345,56.23816 266.967535,57.2512 264.449005,57.2512 C262.338505,57.2512 260.987785,56.71654 260.973715,55.5628 C260.973715,54.46534 262.352575,54.33871 262.352575,54.33871 L262.352575,54.26836 C262.352575,54.26836 261.578725,54.16987 261.578725,53.28346 C261.578725,52.12972 262.929445,52.0453 262.929445,52.0453 L262.929445,51.97495 C262.929445,51.97495 260.889295,51.74983 260.889295,49.87852 C260.875225,48.51373 261.733495,47.1208 264.463075,47.1208 L268.008715,47.1208 C268.008715,47.1208 268.515235,48.47152 267.389635,48.47152 Z M264.420865,48.49966 C262.816885,48.49966 262.591765,49.25944 262.605835,49.86445 C262.605835,50.62423 263.168635,51.0604 264.097255,51.0604 C265.405765,51.0604 265.827865,50.41318 265.827865,49.78003 C265.827865,49.11874 265.363555,48.49966 264.420865,48.49966 Z M263.013865,54.52162 C262.957585,54.59197 262.690255,54.83116 262.690255,55.12663 C262.690255,55.61908 263.042005,56.02711 264.449005,56.02711 C265.841935,56.02711 266.264035,55.60501 266.264035,55.1407 C266.264035,54.88744 266.109265,54.5779 265.419835,54.5779 C264.983665,54.56383 264.266095,54.60604 263.942485,54.60604 C263.450035,54.60604 263.140495,54.56383 263.013865,54.52162 Z M270.639805,55 C270.062935,55 270.006655,54.53569 270.006655,54.14173 L270.006655,53.0302 C270.048865,51.13075 270.048865,46.95196 270.048865,45.92485 C270.048865,45.48868 269.851885,45.0103 270.878995,45.0103 C271.723195,45.0103 272.032735,45.33391 272.004595,46.02334 C271.962385,46.6987 271.948315,47.65546 271.934245,48.65443 L272.089015,48.65443 C272.187505,48.28861 272.848795,47.1208 274.494985,47.1208 C276.506995,47.1208 277.055725,48.73885 277.055725,50.25841 C277.041655,51.39808 276.943165,52.59403 276.971305,54.2965 C276.985375,54.74674 277.027585,55.1407 276.127105,55.1407 C275.212555,55.1407 274.987435,54.73267 274.987435,54.22615 C274.987435,52.94578 275.057785,51.65134 275.057785,50.27248 C275.057785,49.38607 274.663825,48.6685 273.805555,48.6685 C272.722165,48.6685 272.117155,49.78003 271.920175,50.20213 C271.906105,51.45436 271.920175,52.59403 271.934245,53.11462 C271.934245,53.52265 271.948315,53.84626 271.962385,53.98696 C272.004595,54.56383 271.990525,55 271.357375,55 Z M285.877615,51.10261 C285.849475,53.39602 284.653525,55.15477 282.261625,55.15477 C279.855655,55.15477 278.631565,53.41009 278.659705,51.08854 C278.687845,48.87955 279.855655,47.1208 282.247555,47.1208 C284.653525,47.1208 285.905755,48.86548 285.877615,51.10261 Z M283.992235,51.08854 C283.992235,49.78003 283.584205,48.65443 282.261625,48.65443 C280.840555,48.65443 280.531015,49.7941 280.531015,51.08854 C280.531015,52.42519 280.854625,53.62114 282.247555,53.62114 C283.668625,53.62114 283.992235,52.42519 283.992235,51.08854 Z M288.410215,47.1208 C289.324765,47.1208 289.549885,47.52883 289.549885,48.03535 C289.549885,49.31572 289.437325,50.61016 289.437325,51.98902 C289.437325,52.87543 289.803145,53.593 290.675485,53.593 C291.688525,53.593 292.251325,52.6081 292.462375,52.14379 C292.476445,51.13075 292.504585,49.9348 292.490515,49.14688 C292.476445,48.73885 292.476445,48.41524 292.462375,48.27454 C292.406095,47.69767 292.434235,47.2615 293.067385,47.2615 L293.784955,47.2615 C294.361825,47.2615 294.418105,47.72581 294.418105,48.11977 C294.418105,48.3871 294.404035,48.78106 294.404035,49.2313 C294.375895,51.13075 294.361825,53.57893 294.375895,54.22615 C294.375895,54.66232 294.629155,55.1407 293.545765,55.1407 C292.701565,55.1407 292.504585,54.63418 292.448305,54.16987 C292.420165,54.07138 292.420165,53.90254 292.420165,53.60707 L292.321675,53.60707 C292.237255,53.98696 291.604105,55.1407 290.028265,55.1407 C287.974045,55.1407 287.481595,53.52265 287.481595,52.00309 C287.495665,50.86342 287.594155,49.66747 287.566015,47.965 C287.551945,47.51476 287.509735,47.1208 288.410215,47.1208 Z M301.439035,49.13281 C301.439035,49.13281 300.608905,48.57001 299.412955,48.57001 C298.934575,48.57001 298.132585,48.6685 298.132585,49.38607 C298.132585,49.7941 298.413985,50.01922 299.004925,50.18806 L300.088315,50.51167 C301.579735,50.94784 302.226955,51.56692 302.226955,52.69252 C302.226955,54.16987 301.031005,55.1407 298.906435,55.1407 C296.936635,55.1407 296.345695,54.5779 296.331625,54.08545 C296.303485,53.593 296.627095,53.12869 296.711515,53.08648 C296.711515,53.08648 297.569785,53.69149 298.836085,53.69149 C299.567725,53.69149 300.313435,53.48044 300.313435,52.80508 C300.313435,52.3267 299.835055,52.07344 299.145625,51.86239 L298.104445,51.53878 C296.697445,51.10261 296.219065,50.45539 296.219065,49.42828 C296.219065,48.00721 297.372805,47.1208 299.286325,47.1208 C301.284265,47.1208 301.818925,47.66953 301.861135,48.00721 C301.931485,48.40117 301.607875,48.99211 301.439035,49.13281 Z M305.505265,51.44029 L305.477125,51.4825 C305.491195,52.59403 306.124345,53.66335 307.531345,53.66335 C308.642875,53.66335 309.501145,53.07241 309.641845,52.98799 C309.641845,52.98799 309.923245,53.18497 310.035805,53.56486 C310.148365,54.00103 310.021735,54.32464 309.698125,54.53569 C309.430795,54.70453 308.586595,55.1407 307.418785,55.1407 C304.773625,55.1407 303.690235,53.38195 303.690235,51.08854 C303.690235,48.83734 304.998745,47.1208 307.306225,47.1208 C309.332305,47.1208 310.429765,48.45745 310.429765,49.97701 C310.429765,51.21517 310.078015,51.44029 309.557425,51.44029 Z M305.519335,50.37097 L308.642875,50.37097 C308.642875,50.37097 308.685085,50.18806 308.685085,49.97701 C308.685085,49.07653 308.234845,48.57001 307.264015,48.57001 C305.899225,48.57001 305.519335,49.70968 305.519335,50.37097 Z M305.519335,50.37097" id="The Cease &amp; Desist C" fill="#456499"></path>
        </g>
    </g>
</svg>
